<?xml version="1.0" encoding="utf-8" standalone="no"?>
<!DOCTYPE svg PUBLIC "-//W3C//DTD SVG 1.1//EN"
  "http://www.w3.org/Graphics/SVG/1.1/DTD/svg11.dtd">
<svg xmlns:xlink="http://www.w3.org/1999/xlink" width="674.25912pt" height="267.59952pt" viewBox="0 0 674.25912 267.59952" xmlns="http://www.w3.org/2000/svg" version="1.1">
 <metadata>
  <rdf:RDF xmlns:dc="http://purl.org/dc/elements/1.1/" xmlns:cc="http://creativecommons.org/ns#" xmlns:rdf="http://www.w3.org/1999/02/22-rdf-syntax-ns#">
   <cc:Work>
    <dc:type rdf:resource="http://purl.org/dc/dcmitype/StillImage"/>
    <dc:date>2026-06-26T12:02:59.021578</dc:date>
    <dc:format>image/svg+xml</dc:format>
    <dc:creator>
     <cc:Agent>
      <dc:title>Matplotlib v3.11.0, https://matplotlib.org/</dc:title>
     </cc:Agent>
    </dc:creator>
   </cc:Work>
  </rdf:RDF>
 </metadata>
 <defs>
  <style type="text/css">*{stroke-linejoin: round; stroke-linecap: butt}</style>
 </defs>
 <g id="figure_1">
  <g id="patch_1">
   <path d="M 0 267.59952 
L 674.25912 267.59952 
L 674.25912 0 
L 0 0 
z
" style="fill: #ffffff"/>
  </g>
  <g id="axes_1">
   <g id="patch_2">
    <path d="M 7.2 260.39952 
L 324.63936 260.39952 
L 324.63936 22.32 
L 7.2 22.32 
z
" style="fill: #ffffff"/>
   </g>
   <g id="patch_3">
    <path d="M 58.783896 171.516499 
L 188.140435 171.516499 
L 188.140435 196.911648 
L 280.991448 141.35976 
L 188.140435 85.807872 
L 188.140435 111.203021 
L 58.783896 111.203021 
z
" clip-path="url(#p2f0c9a7ad4)" style="fill: #d1d5db; opacity: 0.65; stroke: #6b7280; stroke-width: 2.4; stroke-linejoin: miter"/>
   </g>
   <g id="matplotlib.axis_1"/>
   <g id="matplotlib.axis_2"/>
   <g id="line2d_1">
    <path clip-path="url(#p2f0c9a7ad4)" style="fill: none; stroke: #d8dee8; stroke-linecap: square"/>
   </g>
   <g id="line2d_2">
    <path d="M 7.2 260.39952 
L 7.2 22.32 
" clip-path="url(#p2f0c9a7ad4)" style="fill: none; stroke: #d8dee8; stroke-linecap: square"/>
   </g>
   <g id="line2d_3">
    <path d="M 7.2 220.7196 
L 324.63936 220.7196 
" clip-path="url(#p2f0c9a7ad4)" style="fill: none; stroke: #d8dee8; stroke-linecap: square"/>
   </g>
   <g id="line2d_4">
    <path d="M 86.55984 260.39952 
L 86.55984 22.32 
" clip-path="url(#p2f0c9a7ad4)" style="fill: none; stroke: #d8dee8; stroke-linecap: square"/>
   </g>
   <g id="line2d_5">
    <path d="M 7.2 141.35976 
L 324.63936 141.35976 
" clip-path="url(#p2f0c9a7ad4)" style="fill: none; stroke: #d8dee8; stroke-linecap: square"/>
   </g>
   <g id="line2d_6">
    <path d="M 165.91968 260.39952 
L 165.91968 22.32 
" clip-path="url(#p2f0c9a7ad4)" style="fill: none; stroke: #d8dee8; stroke-linecap: square"/>
   </g>
   <g id="line2d_7">
    <path d="M 7.2 61.99992 
L 324.63936 61.99992 
" clip-path="url(#p2f0c9a7ad4)" style="fill: none; stroke: #d8dee8; stroke-linecap: square"/>
   </g>
   <g id="line2d_8">
    <path d="M 245.27952 260.39952 
L 245.27952 22.32 
" clip-path="url(#p2f0c9a7ad4)" style="fill: none; stroke: #d8dee8; stroke-linecap: square"/>
   </g>
   <g id="line2d_9">
    <path clip-path="url(#p2f0c9a7ad4)" style="fill: none; stroke: #d8dee8; stroke-linecap: square"/>
   </g>
   <g id="line2d_10">
    <path d="M 324.63936 260.39952 
L 324.63936 22.32 
" clip-path="url(#p2f0c9a7ad4)" style="fill: none; stroke: #d8dee8; stroke-linecap: square"/>
   </g>
   <g id="line2d_11">
    <path d="M 7.2 141.35976 
L 324.63936 141.35976 
" clip-path="url(#p2f0c9a7ad4)" style="fill: none; stroke: #9aa4b2; stroke-width: 1.6; stroke-linecap: square"/>
   </g>
   <g id="line2d_12">
    <path d="M 165.91968 260.39952 
L 165.91968 22.32 
" clip-path="url(#p2f0c9a7ad4)" style="fill: none; stroke: #9aa4b2; stroke-width: 1.6; stroke-linecap: square"/>
   </g>
   <g id="patch_4">
    <path d="M 7.2 260.39952 
L 7.2 22.32 
" style="fill: none; stroke: #d6dde8; stroke-width: 0.8; stroke-linejoin: miter; stroke-linecap: square"/>
   </g>
   <g id="patch_5">
    <path d="M 324.63936 260.39952 
L 324.63936 22.32 
" style="fill: none; stroke: #d6dde8; stroke-width: 0.8; stroke-linejoin: miter; stroke-linecap: square"/>
   </g>
   <g id="patch_6">
    <path d="M 7.2 260.39952 
L 324.63936 260.39952 
" style="fill: none; stroke: #d6dde8; stroke-width: 0.8; stroke-linejoin: miter; stroke-linecap: square"/>
   </g>
   <g id="patch_7">
    <path d="M 7.2 22.32 
L 324.63936 22.32 
" style="fill: none; stroke: #d6dde8; stroke-width: 0.8; stroke-linejoin: miter; stroke-linecap: square"/>
   </g>
   <g id="text_1">
    <!-- Before -->
    <g transform="translate(143.516242 16.32) scale(0.12 -0.12)">
     <defs>
      <path id="DejaVuSans-Bold-25" d="M 2456 2859 
Q 2741 2859 2887 2984 
Q 3034 3109 3034 3353 
Q 3034 3594 2887 3720 
Q 2741 3847 2456 3847 
L 1791 3847 
L 1791 2859 
L 2456 2859 
z
M 2497 819 
Q 2859 819 3042 972 
Q 3225 1125 3225 1434 
Q 3225 1738 3044 1889 
Q 2863 2041 2497 2041 
L 1791 2041 
L 1791 819 
L 2497 819 
z
M 3616 2497 
Q 4003 2384 4215 2081 
Q 4428 1778 4428 1338 
Q 4428 663 3972 331 
Q 3516 0 2584 0 
L 588 0 
L 588 4666 
L 2394 4666 
Q 3366 4666 3802 4372 
Q 4238 4078 4238 3431 
Q 4238 3091 4078 2852 
Q 3919 2613 3616 2497 
z
" transform="scale(0.015625)"/>
      <path id="DejaVuSans-Bold-48" d="M 4031 1759 
L 4031 1441 
L 1416 1441 
Q 1456 1047 1700 850 
Q 1944 653 2381 653 
Q 2734 653 3104 758 
Q 3475 863 3866 1075 
L 3866 213 
Q 3469 63 3072 -14 
Q 2675 -91 2278 -91 
Q 1328 -91 801 392 
Q 275 875 275 1747 
Q 275 2603 792 3093 
Q 1309 3584 2216 3584 
Q 3041 3584 3536 3087 
Q 4031 2591 4031 1759 
z
M 2881 2131 
Q 2881 2450 2695 2645 
Q 2509 2841 2209 2841 
Q 1884 2841 1681 2658 
Q 1478 2475 1428 2131 
L 2881 2131 
z
" transform="scale(0.015625)"/>
      <path id="DejaVuSans-Bold-49" d="M 2841 4863 
L 2841 4128 
L 2222 4128 
Q 1984 4128 1890 4042 
Q 1797 3956 1797 3744 
L 1797 3500 
L 2753 3500 
L 2753 2700 
L 1797 2700 
L 1797 0 
L 678 0 
L 678 2700 
L 122 2700 
L 122 3500 
L 678 3500 
L 678 3744 
Q 678 4316 997 4589 
Q 1316 4863 1984 4863 
L 2841 4863 
z
" transform="scale(0.015625)"/>
      <path id="DejaVuSans-Bold-52" d="M 2203 2784 
Q 1831 2784 1636 2517 
Q 1441 2250 1441 1747 
Q 1441 1244 1636 976 
Q 1831 709 2203 709 
Q 2569 709 2762 976 
Q 2956 1244 2956 1747 
Q 2956 2250 2762 2517 
Q 2569 2784 2203 2784 
z
M 2203 3584 
Q 3106 3584 3614 3096 
Q 4122 2609 4122 1747 
Q 4122 884 3614 396 
Q 3106 -91 2203 -91 
Q 1297 -91 786 396 
Q 275 884 275 1747 
Q 275 2609 786 3096 
Q 1297 3584 2203 3584 
z
" transform="scale(0.015625)"/>
      <path id="DejaVuSans-Bold-55" d="M 3138 2547 
Q 2991 2616 2845 2648 
Q 2700 2681 2553 2681 
Q 2122 2681 1889 2404 
Q 1656 2128 1656 1613 
L 1656 0 
L 538 0 
L 538 3500 
L 1656 3500 
L 1656 2925 
Q 1872 3269 2151 3426 
Q 2431 3584 2822 3584 
Q 2878 3584 2943 3579 
Q 3009 3575 3134 3559 
L 3138 2547 
z
" transform="scale(0.015625)"/>
     </defs>
     <use xlink:href="#DejaVuSans-Bold-25"/>
     <use xlink:href="#DejaVuSans-Bold-48" transform="translate(76.21875 0)"/>
     <use xlink:href="#DejaVuSans-Bold-49" transform="translate(144.046875 0)"/>
     <use xlink:href="#DejaVuSans-Bold-52" transform="translate(187.546875 0)"/>
     <use xlink:href="#DejaVuSans-Bold-55" transform="translate(256.25 0)"/>
     <use xlink:href="#DejaVuSans-Bold-48" transform="translate(305.5625 0)"/>
    </g>
   </g>
  </g>
  <g id="axes_2">
   <g id="patch_8">
    <path d="M 349.61976 260.39952 
L 667.05912 260.39952 
L 667.05912 22.32 
L 349.61976 22.32 
z
" style="fill: #ffffff"/>
   </g>
   <g id="patch_9">
    <path d="M 401.203656 171.516499 
L 530.560195 171.516499 
L 530.560195 196.911648 
L 623.411208 141.35976 
L 530.560195 85.807872 
L 530.560195 111.203021 
L 401.203656 111.203021 
z
" clip-path="url(#pd12ffa125b)" style="fill: #ddd6fe; opacity: 0.65; stroke: #7c3aed; stroke-width: 2.4; stroke-linejoin: miter"/>
   </g>
   <g id="matplotlib.axis_3"/>
   <g id="matplotlib.axis_4"/>
   <g id="line2d_13">
    <path clip-path="url(#pd12ffa125b)" style="fill: none; stroke: #d8dee8; stroke-linecap: square"/>
   </g>
   <g id="line2d_14">
    <path d="M 349.61976 260.39952 
L 349.61976 22.32 
" clip-path="url(#pd12ffa125b)" style="fill: none; stroke: #d8dee8; stroke-linecap: square"/>
   </g>
   <g id="line2d_15">
    <path d="M 349.61976 220.7196 
L 667.05912 220.7196 
" clip-path="url(#pd12ffa125b)" style="fill: none; stroke: #d8dee8; stroke-linecap: square"/>
   </g>
   <g id="line2d_16">
    <path d="M 428.9796 260.39952 
L 428.9796 22.32 
" clip-path="url(#pd12ffa125b)" style="fill: none; stroke: #d8dee8; stroke-linecap: square"/>
   </g>
   <g id="line2d_17">
    <path d="M 349.61976 141.35976 
L 667.05912 141.35976 
" clip-path="url(#pd12ffa125b)" style="fill: none; stroke: #d8dee8; stroke-linecap: square"/>
   </g>
   <g id="line2d_18">
    <path d="M 508.33944 260.39952 
L 508.33944 22.32 
" clip-path="url(#pd12ffa125b)" style="fill: none; stroke: #d8dee8; stroke-linecap: square"/>
   </g>
   <g id="line2d_19">
    <path d="M 349.61976 61.99992 
L 667.05912 61.99992 
" clip-path="url(#pd12ffa125b)" style="fill: none; stroke: #d8dee8; stroke-linecap: square"/>
   </g>
   <g id="line2d_20">
    <path d="M 587.69928 260.39952 
L 587.69928 22.32 
" clip-path="url(#pd12ffa125b)" style="fill: none; stroke: #d8dee8; stroke-linecap: square"/>
   </g>
   <g id="line2d_21">
    <path clip-path="url(#pd12ffa125b)" style="fill: none; stroke: #d8dee8; stroke-linecap: square"/>
   </g>
   <g id="line2d_22">
    <path d="M 667.05912 260.39952 
L 667.05912 22.32 
" clip-path="url(#pd12ffa125b)" style="fill: none; stroke: #d8dee8; stroke-linecap: square"/>
   </g>
   <g id="line2d_23">
    <path d="M 349.61976 141.35976 
L 667.05912 141.35976 
" clip-path="url(#pd12ffa125b)" style="fill: none; stroke: #9aa4b2; stroke-width: 1.6; stroke-linecap: square"/>
   </g>
   <g id="line2d_24">
    <path d="M 508.33944 260.39952 
L 508.33944 22.32 
" clip-path="url(#pd12ffa125b)" style="fill: none; stroke: #9aa4b2; stroke-width: 1.6; stroke-linecap: square"/>
   </g>
   <g id="patch_10">
    <path d="M 349.61976 260.39952 
L 349.61976 22.32 
" style="fill: none; stroke: #d6dde8; stroke-width: 0.8; stroke-linejoin: miter; stroke-linecap: square"/>
   </g>
   <g id="patch_11">
    <path d="M 667.05912 260.39952 
L 667.05912 22.32 
" style="fill: none; stroke: #d6dde8; stroke-width: 0.8; stroke-linejoin: miter; stroke-linecap: square"/>
   </g>
   <g id="patch_12">
    <path d="M 349.61976 260.39952 
L 667.05912 260.39952 
" style="fill: none; stroke: #d6dde8; stroke-width: 0.8; stroke-linejoin: miter; stroke-linecap: square"/>
   </g>
   <g id="patch_13">
    <path d="M 349.61976 22.32 
L 667.05912 22.32 
" style="fill: none; stroke: #d6dde8; stroke-width: 0.8; stroke-linejoin: miter; stroke-linecap: square"/>
   </g>
   <g id="text_2">
    <!-- After applying $I$ -->
    <g transform="translate(455.95944 16.32) scale(0.12 -0.12)">
     <defs>
      <path id="DejaVuSans-Bold-24" d="M 3419 850 
L 1538 850 
L 1241 0 
L 31 0 
L 1759 4666 
L 3194 4666 
L 4922 0 
L 3713 0 
L 3419 850 
z
M 1838 1716 
L 3116 1716 
L 2478 3572 
L 1838 1716 
z
" transform="scale(0.015625)"/>
      <path id="DejaVuSans-Bold-57" d="M 1759 4494 
L 1759 3500 
L 2913 3500 
L 2913 2700 
L 1759 2700 
L 1759 1216 
Q 1759 972 1856 886 
Q 1953 800 2241 800 
L 2816 800 
L 2816 0 
L 1856 0 
Q 1194 0 917 276 
Q 641 553 641 1216 
L 641 2700 
L 84 2700 
L 84 3500 
L 641 3500 
L 641 4494 
L 1759 4494 
z
" transform="scale(0.015625)"/>
      <path id="DejaVuSans-Bold-3" transform="scale(0.015625)"/>
      <path id="DejaVuSans-Bold-44" d="M 2106 1575 
Q 1756 1575 1579 1456 
Q 1403 1338 1403 1106 
Q 1403 894 1545 773 
Q 1688 653 1941 653 
Q 2256 653 2472 879 
Q 2688 1106 2688 1447 
L 2688 1575 
L 2106 1575 
z
M 3816 1997 
L 3816 0 
L 2688 0 
L 2688 519 
Q 2463 200 2181 54 
Q 1900 -91 1497 -91 
Q 953 -91 614 226 
Q 275 544 275 1050 
Q 275 1666 698 1953 
Q 1122 2241 2028 2241 
L 2688 2241 
L 2688 2328 
Q 2688 2594 2478 2717 
Q 2269 2841 1825 2841 
Q 1466 2841 1156 2769 
Q 847 2697 581 2553 
L 581 3406 
Q 941 3494 1303 3539 
Q 1666 3584 2028 3584 
Q 2975 3584 3395 3211 
Q 3816 2838 3816 1997 
z
" transform="scale(0.015625)"/>
      <path id="DejaVuSans-Bold-53" d="M 1656 506 
L 1656 -1331 
L 538 -1331 
L 538 3500 
L 1656 3500 
L 1656 2988 
Q 1888 3294 2169 3439 
Q 2450 3584 2816 3584 
Q 3463 3584 3878 3070 
Q 4294 2556 4294 1747 
Q 4294 938 3878 423 
Q 3463 -91 2816 -91 
Q 2450 -91 2169 54 
Q 1888 200 1656 506 
z
M 2400 2772 
Q 2041 2772 1848 2508 
Q 1656 2244 1656 1747 
Q 1656 1250 1848 986 
Q 2041 722 2400 722 
Q 2759 722 2948 984 
Q 3138 1247 3138 1747 
Q 3138 2247 2948 2509 
Q 2759 2772 2400 2772 
z
" transform="scale(0.015625)"/>
      <path id="DejaVuSans-Bold-4f" d="M 538 4863 
L 1656 4863 
L 1656 0 
L 538 0 
L 538 4863 
z
" transform="scale(0.015625)"/>
      <path id="DejaVuSans-Bold-5c" d="M 78 3500 
L 1197 3500 
L 2138 1125 
L 2938 3500 
L 4056 3500 
L 2584 -331 
Q 2363 -916 2067 -1148 
Q 1772 -1381 1288 -1381 
L 641 -1381 
L 641 -647 
L 991 -647 
Q 1275 -647 1404 -556 
Q 1534 -466 1606 -231 
L 1638 -134 
L 78 3500 
z
" transform="scale(0.015625)"/>
      <path id="DejaVuSans-Bold-4c" d="M 538 3500 
L 1656 3500 
L 1656 0 
L 538 0 
L 538 3500 
z
M 538 4863 
L 1656 4863 
L 1656 3950 
L 538 3950 
L 538 4863 
z
" transform="scale(0.015625)"/>
      <path id="DejaVuSans-Bold-51" d="M 4056 2131 
L 4056 0 
L 2931 0 
L 2931 347 
L 2931 1631 
Q 2931 2084 2911 2256 
Q 2891 2428 2841 2509 
Q 2775 2619 2662 2680 
Q 2550 2741 2406 2741 
Q 2056 2741 1856 2470 
Q 1656 2200 1656 1722 
L 1656 0 
L 538 0 
L 538 3500 
L 1656 3500 
L 1656 2988 
Q 1909 3294 2193 3439 
Q 2478 3584 2822 3584 
Q 3428 3584 3742 3212 
Q 4056 2841 4056 2131 
z
" transform="scale(0.015625)"/>
      <path id="DejaVuSans-Bold-4a" d="M 2919 594 
Q 2688 288 2409 144 
Q 2131 0 1766 0 
Q 1125 0 706 504 
Q 288 1009 288 1791 
Q 288 2575 706 3076 
Q 1125 3578 1766 3578 
Q 2131 3578 2409 3434 
Q 2688 3291 2919 2981 
L 2919 3500 
L 4044 3500 
L 4044 353 
Q 4044 -491 3511 -936 
Q 2978 -1381 1966 -1381 
Q 1638 -1381 1331 -1331 
Q 1025 -1281 716 -1178 
L 716 -306 
Q 1009 -475 1290 -558 
Q 1572 -641 1856 -641 
Q 2406 -641 2662 -400 
Q 2919 -159 2919 353 
L 2919 594 
z
M 2181 2772 
Q 1834 2772 1640 2515 
Q 1447 2259 1447 1791 
Q 1447 1309 1634 1061 
Q 1822 813 2181 813 
Q 2531 813 2725 1069 
Q 2919 1325 2919 1791 
Q 2919 2259 2725 2515 
Q 2531 2772 2181 2772 
z
" transform="scale(0.015625)"/>
      <path id="DejaVuSans-Oblique-2c" d="M 1081 4666 
L 1716 4666 
L 806 0 
L 172 0 
L 1081 4666 
z
" transform="scale(0.015625)"/>
     </defs>
     <use xlink:href="#DejaVuSans-Bold-24" transform="translate(0 0.015625)"/>
     <use xlink:href="#DejaVuSans-Bold-49" transform="translate(77.392578 0.015625)"/>
     <use xlink:href="#DejaVuSans-Bold-57" transform="translate(120.898438 0.015625)"/>
     <use xlink:href="#DejaVuSans-Bold-48" transform="translate(168.701172 0.015625)"/>
     <use xlink:href="#DejaVuSans-Bold-55" transform="translate(236.523438 0.015625)"/>
     <use xlink:href="#DejaVuSans-Bold-3" transform="translate(285.839844 0.015625)"/>
     <use xlink:href="#DejaVuSans-Bold-44" transform="translate(320.654297 0.015625)"/>
     <use xlink:href="#DejaVuSans-Bold-53" transform="translate(388.134766 0.015625)"/>
     <use xlink:href="#DejaVuSans-Bold-53" transform="translate(459.716797 0.015625)"/>
     <use xlink:href="#DejaVuSans-Bold-4f" transform="translate(531.298828 0.015625)"/>
     <use xlink:href="#DejaVuSans-Bold-5c" transform="translate(565.576172 0.015625)"/>
     <use xlink:href="#DejaVuSans-Bold-4c" transform="translate(630.761719 0.015625)"/>
     <use xlink:href="#DejaVuSans-Bold-51" transform="translate(665.039062 0.015625)"/>
     <use xlink:href="#DejaVuSans-Bold-4a" transform="translate(736.230469 0.015625)"/>
     <use xlink:href="#DejaVuSans-Bold-3" transform="translate(807.8125 0.015625)"/>
     <use xlink:href="#DejaVuSans-Oblique-2c" transform="translate(842.626953 0.015625)"/>
    </g>
   </g>
  </g>
 </g>
 <defs>
  <clipPath id="p2f0c9a7ad4">
   <rect x="7.2" y="22.32" width="317.43936" height="238.07952"/>
  </clipPath>
  <clipPath id="pd12ffa125b">
   <rect x="349.61976" y="22.32" width="317.43936" height="238.07952"/>
  </clipPath>
 </defs>
</svg>
