<?xml version="1.0" encoding="utf-8" standalone="no"?>
<!DOCTYPE svg PUBLIC "-//W3C//DTD SVG 1.1//EN"
  "http://www.w3.org/Graphics/SVG/1.1/DTD/svg11.dtd">
<svg xmlns:xlink="http://www.w3.org/1999/xlink" width="623.701155pt" height="296.39952pt" viewBox="0 0 623.701155 296.39952" xmlns="http://www.w3.org/2000/svg" version="1.1">
 <metadata>
  <rdf:RDF xmlns:dc="http://purl.org/dc/elements/1.1/" xmlns:cc="http://creativecommons.org/ns#" xmlns:rdf="http://www.w3.org/1999/02/22-rdf-syntax-ns#">
   <cc:Work>
    <dc:type rdf:resource="http://purl.org/dc/dcmitype/StillImage"/>
    <dc:date>2026-06-26T12:02:59.092649</dc:date>
    <dc:format>image/svg+xml</dc:format>
    <dc:creator>
     <cc:Agent>
      <dc:title>Matplotlib v3.11.0, https://matplotlib.org/</dc:title>
     </cc:Agent>
    </dc:creator>
   </cc:Work>
  </rdf:RDF>
 </metadata>
 <defs>
  <style type="text/css">*{stroke-linejoin: round; stroke-linecap: butt}</style>
 </defs>
 <g id="figure_1">
  <g id="patch_1">
   <path d="M 0 296.39952 
L 623.701155 296.39952 
L 623.701155 0 
L 0 0 
z
" style="fill: #ffffff"/>
  </g>
  <g id="axes_1">
   <g id="patch_2">
    <path d="M 7.2 289.19952 
L 274.081395 289.19952 
L 274.081395 22.318125 
L 7.2 22.318125 
z
" style="fill: #ffffff"/>
   </g>
   <g id="patch_3">
    <path d="M 73.920349 222.479171 
L 162.880814 222.479171 
L 162.880814 133.518706 
L 73.920349 133.518706 
z
" clip-path="url(#pcf58a3b7d3)" style="fill: #d1d5db; opacity: 0.55; stroke-dasharray: 7.4,3.2; stroke-dashoffset: 0; stroke: #6b7280; stroke-width: 2; stroke-linejoin: miter"/>
   </g>
   <g id="matplotlib.axis_1"/>
   <g id="matplotlib.axis_2"/>
   <g id="line2d_1">
    <path d="M 7.2 289.19952 
L 274.081395 289.19952 
" clip-path="url(#pcf58a3b7d3)" style="fill: none; stroke: #dde3ec; stroke-width: 0.8; stroke-linecap: square"/>
   </g>
   <g id="line2d_2">
    <path d="M 7.2 289.19952 
L 7.2 22.318125 
" clip-path="url(#pcf58a3b7d3)" style="fill: none; stroke: #dde3ec; stroke-width: 0.8; stroke-linecap: square"/>
   </g>
   <g id="line2d_3">
    <path d="M 7.2 244.719287 
L 274.081395 244.719287 
" clip-path="url(#pcf58a3b7d3)" style="fill: none; stroke: #dde3ec; stroke-width: 0.8; stroke-linecap: square"/>
   </g>
   <g id="line2d_4">
    <path d="M 51.680233 289.19952 
L 51.680233 22.318125 
" clip-path="url(#pcf58a3b7d3)" style="fill: none; stroke: #dde3ec; stroke-width: 0.8; stroke-linecap: square"/>
   </g>
   <g id="line2d_5">
    <path d="M 7.2 200.239055 
L 274.081395 200.239055 
" clip-path="url(#pcf58a3b7d3)" style="fill: none; stroke: #dde3ec; stroke-width: 0.8; stroke-linecap: square"/>
   </g>
   <g id="line2d_6">
    <path d="M 96.160465 289.19952 
L 96.160465 22.318125 
" clip-path="url(#pcf58a3b7d3)" style="fill: none; stroke: #dde3ec; stroke-width: 0.8; stroke-linecap: square"/>
   </g>
   <g id="line2d_7">
    <path d="M 7.2 155.758822 
L 274.081395 155.758822 
" clip-path="url(#pcf58a3b7d3)" style="fill: none; stroke: #dde3ec; stroke-width: 0.8; stroke-linecap: square"/>
   </g>
   <g id="line2d_8">
    <path d="M 140.640697 289.19952 
L 140.640697 22.318125 
" clip-path="url(#pcf58a3b7d3)" style="fill: none; stroke: #dde3ec; stroke-width: 0.8; stroke-linecap: square"/>
   </g>
   <g id="line2d_9">
    <path d="M 7.2 111.27859 
L 274.081395 111.27859 
" clip-path="url(#pcf58a3b7d3)" style="fill: none; stroke: #dde3ec; stroke-width: 0.8; stroke-linecap: square"/>
   </g>
   <g id="line2d_10">
    <path d="M 185.12093 289.19952 
L 185.12093 22.318125 
" clip-path="url(#pcf58a3b7d3)" style="fill: none; stroke: #dde3ec; stroke-width: 0.8; stroke-linecap: square"/>
   </g>
   <g id="line2d_11">
    <path d="M 7.2 66.798357 
L 274.081395 66.798357 
" clip-path="url(#pcf58a3b7d3)" style="fill: none; stroke: #dde3ec; stroke-width: 0.8; stroke-linecap: square"/>
   </g>
   <g id="line2d_12">
    <path d="M 229.601162 289.19952 
L 229.601162 22.318125 
" clip-path="url(#pcf58a3b7d3)" style="fill: none; stroke: #dde3ec; stroke-width: 0.8; stroke-linecap: square"/>
   </g>
   <g id="line2d_13">
    <path d="M 7.2 22.318125 
L 274.081395 22.318125 
" clip-path="url(#pcf58a3b7d3)" style="fill: none; stroke: #dde3ec; stroke-width: 0.8; stroke-linecap: square"/>
   </g>
   <g id="line2d_14">
    <path d="M 274.081395 289.19952 
L 274.081395 22.318125 
" clip-path="url(#pcf58a3b7d3)" style="fill: none; stroke: #dde3ec; stroke-width: 0.8; stroke-linecap: square"/>
   </g>
   <g id="line2d_15">
    <path d="M 7.2 222.479171 
L 274.081395 222.479171 
" clip-path="url(#pcf58a3b7d3)" style="fill: none; stroke: #9aa4b2; stroke-width: 1.4; stroke-linecap: square"/>
   </g>
   <g id="line2d_16">
    <path d="M 73.920349 289.19952 
L 73.920349 22.318125 
" clip-path="url(#pcf58a3b7d3)" style="fill: none; stroke: #9aa4b2; stroke-width: 1.4; stroke-linecap: square"/>
   </g>
   <g id="patch_4">
    <path d="M 7.2 289.19952 
L 7.2 22.318125 
" style="fill: none; stroke: #d6dde8; stroke-width: 0.8; stroke-linejoin: miter; stroke-linecap: square"/>
   </g>
   <g id="patch_5">
    <path d="M 274.081395 289.19952 
L 274.081395 22.318125 
" style="fill: none; stroke: #d6dde8; stroke-width: 0.8; stroke-linejoin: miter; stroke-linecap: square"/>
   </g>
   <g id="patch_6">
    <path d="M 7.2 289.19952 
L 274.081395 289.19952 
" style="fill: none; stroke: #d6dde8; stroke-width: 0.8; stroke-linejoin: miter; stroke-linecap: square"/>
   </g>
   <g id="patch_7">
    <path d="M 7.2 22.318125 
L 274.081395 22.318125 
" style="fill: none; stroke: #d6dde8; stroke-width: 0.8; stroke-linejoin: miter; stroke-linecap: square"/>
   </g>
   <g id="patch_8">
    <path d="M 75.921199 222.479171 
Q 118.401852 222.479171 157.528403 222.479171 
" style="fill: none; stroke: #0f9f8f; stroke-width: 3; stroke-linecap: round"/>
    <path d="M 150.328403 218.879171 
L 157.528403 222.479171 
L 150.328403 226.079171 
z
" style="fill: #0f9f8f; stroke: #0f9f8f; stroke-width: 3; stroke-linecap: round"/>
   </g>
   <g id="text_1">
    <!-- $e_1$ -->
    <g style="fill: #0f9f8f" transform="translate(168.218442 217.141543) scale(0.11 -0.11)">
     <defs>
      <path id="DejaVuSans-Oblique-48" d="M 3078 2063 
Q 3088 2113 3092 2166 
Q 3097 2219 3097 2272 
Q 3097 2653 2873 2875 
Q 2650 3097 2266 3097 
Q 1838 3097 1509 2826 
Q 1181 2556 1013 2059 
L 3078 2063 
z
M 3578 1613 
L 903 1613 
Q 884 1494 878 1425 
Q 872 1356 872 1306 
Q 872 872 1139 634 
Q 1406 397 1894 397 
Q 2269 397 2603 481 
Q 2938 566 3225 728 
L 3116 159 
Q 2806 34 2476 -28 
Q 2147 -91 1806 -91 
Q 1078 -91 686 257 
Q 294 606 294 1247 
Q 294 1794 489 2264 
Q 684 2734 1063 3103 
Q 1306 3334 1642 3459 
Q 1978 3584 2356 3584 
Q 2950 3584 3301 3228 
Q 3653 2872 3653 2272 
Q 3653 2128 3634 1964 
Q 3616 1800 3578 1613 
z
" transform="scale(0.015625)"/>
      <path id="DejaVuSans-14" d="M 794 531 
L 1825 531 
L 1825 4091 
L 703 3866 
L 703 4441 
L 1819 4666 
L 2450 4666 
L 2450 531 
L 3481 531 
L 3481 0 
L 794 0 
L 794 531 
z
" transform="scale(0.015625)"/>
     </defs>
     <use xlink:href="#DejaVuSans-Oblique-48"/>
     <use xlink:href="#DejaVuSans-14" transform="translate(61.523438 -14.999951) scale(0.7)"/>
    </g>
   </g>
   <g id="patch_9">
    <path d="M 73.920349 220.478321 
Q 73.920349 177.997668 73.920349 138.871117 
" style="fill: none; stroke: #c45a11; stroke-width: 3; stroke-linecap: round"/>
    <path d="M 70.320349 146.071117 
L 73.920349 138.871117 
L 77.520349 146.071117 
z
" style="fill: #c45a11; stroke: #c45a11; stroke-width: 3; stroke-linecap: round"/>
   </g>
   <g id="text_2">
    <!-- $e_2$ -->
    <g style="fill: #c45a11" transform="translate(79.257977 128.181078) scale(0.11 -0.11)">
     <defs>
      <path id="DejaVuSans-15" d="M 1228 531 
L 3431 531 
L 3431 0 
L 469 0 
L 469 531 
Q 828 903 1448 1529 
Q 2069 2156 2228 2338 
Q 2531 2678 2651 2914 
Q 2772 3150 2772 3378 
Q 2772 3750 2511 3984 
Q 2250 4219 1831 4219 
Q 1534 4219 1204 4116 
Q 875 4013 500 3803 
L 500 4441 
Q 881 4594 1212 4672 
Q 1544 4750 1819 4750 
Q 2544 4750 2975 4387 
Q 3406 4025 3406 3419 
Q 3406 3131 3298 2873 
Q 3191 2616 2906 2266 
Q 2828 2175 2409 1742 
Q 1991 1309 1228 531 
z
" transform="scale(0.015625)"/>
     </defs>
     <use xlink:href="#DejaVuSans-Oblique-48"/>
     <use xlink:href="#DejaVuSans-15" transform="translate(61.523438 -14.999951) scale(0.7)"/>
    </g>
   </g>
   <g id="text_3">
    <!-- Basis vectors -->
    <g transform="translate(95.67351 16.318125) scale(0.12 -0.12)">
     <defs>
      <path id="DejaVuSans-Bold-25" d="M 2456 2859 
Q 2741 2859 2887 2984 
Q 3034 3109 3034 3353 
Q 3034 3594 2887 3720 
Q 2741 3847 2456 3847 
L 1791 3847 
L 1791 2859 
L 2456 2859 
z
M 2497 819 
Q 2859 819 3042 972 
Q 3225 1125 3225 1434 
Q 3225 1738 3044 1889 
Q 2863 2041 2497 2041 
L 1791 2041 
L 1791 819 
L 2497 819 
z
M 3616 2497 
Q 4003 2384 4215 2081 
Q 4428 1778 4428 1338 
Q 4428 663 3972 331 
Q 3516 0 2584 0 
L 588 0 
L 588 4666 
L 2394 4666 
Q 3366 4666 3802 4372 
Q 4238 4078 4238 3431 
Q 4238 3091 4078 2852 
Q 3919 2613 3616 2497 
z
" transform="scale(0.015625)"/>
      <path id="DejaVuSans-Bold-44" d="M 2106 1575 
Q 1756 1575 1579 1456 
Q 1403 1338 1403 1106 
Q 1403 894 1545 773 
Q 1688 653 1941 653 
Q 2256 653 2472 879 
Q 2688 1106 2688 1447 
L 2688 1575 
L 2106 1575 
z
M 3816 1997 
L 3816 0 
L 2688 0 
L 2688 519 
Q 2463 200 2181 54 
Q 1900 -91 1497 -91 
Q 953 -91 614 226 
Q 275 544 275 1050 
Q 275 1666 698 1953 
Q 1122 2241 2028 2241 
L 2688 2241 
L 2688 2328 
Q 2688 2594 2478 2717 
Q 2269 2841 1825 2841 
Q 1466 2841 1156 2769 
Q 847 2697 581 2553 
L 581 3406 
Q 941 3494 1303 3539 
Q 1666 3584 2028 3584 
Q 2975 3584 3395 3211 
Q 3816 2838 3816 1997 
z
" transform="scale(0.015625)"/>
      <path id="DejaVuSans-Bold-56" d="M 3272 3391 
L 3272 2541 
Q 2913 2691 2578 2766 
Q 2244 2841 1947 2841 
Q 1628 2841 1473 2761 
Q 1319 2681 1319 2516 
Q 1319 2381 1436 2309 
Q 1553 2238 1856 2203 
L 2053 2175 
Q 2913 2066 3209 1816 
Q 3506 1566 3506 1031 
Q 3506 472 3093 190 
Q 2681 -91 1863 -91 
Q 1516 -91 1145 -36 
Q 775 19 384 128 
L 384 978 
Q 719 816 1070 734 
Q 1422 653 1784 653 
Q 2113 653 2278 743 
Q 2444 834 2444 1013 
Q 2444 1163 2330 1236 
Q 2216 1309 1875 1350 
L 1678 1375 
Q 931 1469 631 1722 
Q 331 1975 331 2491 
Q 331 3047 712 3315 
Q 1094 3584 1881 3584 
Q 2191 3584 2531 3537 
Q 2872 3491 3272 3391 
z
" transform="scale(0.015625)"/>
      <path id="DejaVuSans-Bold-4c" d="M 538 3500 
L 1656 3500 
L 1656 0 
L 538 0 
L 538 3500 
z
M 538 4863 
L 1656 4863 
L 1656 3950 
L 538 3950 
L 538 4863 
z
" transform="scale(0.015625)"/>
      <path id="DejaVuSans-Bold-3" transform="scale(0.015625)"/>
      <path id="DejaVuSans-Bold-59" d="M 97 3500 
L 1216 3500 
L 2088 1081 
L 2956 3500 
L 4078 3500 
L 2700 0 
L 1472 0 
L 97 3500 
z
" transform="scale(0.015625)"/>
      <path id="DejaVuSans-Bold-48" d="M 4031 1759 
L 4031 1441 
L 1416 1441 
Q 1456 1047 1700 850 
Q 1944 653 2381 653 
Q 2734 653 3104 758 
Q 3475 863 3866 1075 
L 3866 213 
Q 3469 63 3072 -14 
Q 2675 -91 2278 -91 
Q 1328 -91 801 392 
Q 275 875 275 1747 
Q 275 2603 792 3093 
Q 1309 3584 2216 3584 
Q 3041 3584 3536 3087 
Q 4031 2591 4031 1759 
z
M 2881 2131 
Q 2881 2450 2695 2645 
Q 2509 2841 2209 2841 
Q 1884 2841 1681 2658 
Q 1478 2475 1428 2131 
L 2881 2131 
z
" transform="scale(0.015625)"/>
      <path id="DejaVuSans-Bold-46" d="M 3366 3391 
L 3366 2478 
Q 3138 2634 2908 2709 
Q 2678 2784 2431 2784 
Q 1963 2784 1702 2511 
Q 1441 2238 1441 1747 
Q 1441 1256 1702 982 
Q 1963 709 2431 709 
Q 2694 709 2930 787 
Q 3166 866 3366 1019 
L 3366 103 
Q 3103 6 2833 -42 
Q 2563 -91 2291 -91 
Q 1344 -91 809 395 
Q 275 881 275 1747 
Q 275 2613 809 3098 
Q 1344 3584 2291 3584 
Q 2566 3584 2833 3536 
Q 3100 3488 3366 3391 
z
" transform="scale(0.015625)"/>
      <path id="DejaVuSans-Bold-57" d="M 1759 4494 
L 1759 3500 
L 2913 3500 
L 2913 2700 
L 1759 2700 
L 1759 1216 
Q 1759 972 1856 886 
Q 1953 800 2241 800 
L 2816 800 
L 2816 0 
L 1856 0 
Q 1194 0 917 276 
Q 641 553 641 1216 
L 641 2700 
L 84 2700 
L 84 3500 
L 641 3500 
L 641 4494 
L 1759 4494 
z
" transform="scale(0.015625)"/>
      <path id="DejaVuSans-Bold-52" d="M 2203 2784 
Q 1831 2784 1636 2517 
Q 1441 2250 1441 1747 
Q 1441 1244 1636 976 
Q 1831 709 2203 709 
Q 2569 709 2762 976 
Q 2956 1244 2956 1747 
Q 2956 2250 2762 2517 
Q 2569 2784 2203 2784 
z
M 2203 3584 
Q 3106 3584 3614 3096 
Q 4122 2609 4122 1747 
Q 4122 884 3614 396 
Q 3106 -91 2203 -91 
Q 1297 -91 786 396 
Q 275 884 275 1747 
Q 275 2609 786 3096 
Q 1297 3584 2203 3584 
z
" transform="scale(0.015625)"/>
      <path id="DejaVuSans-Bold-55" d="M 3138 2547 
Q 2991 2616 2845 2648 
Q 2700 2681 2553 2681 
Q 2122 2681 1889 2404 
Q 1656 2128 1656 1613 
L 1656 0 
L 538 0 
L 538 3500 
L 1656 3500 
L 1656 2925 
Q 1872 3269 2151 3426 
Q 2431 3584 2822 3584 
Q 2878 3584 2943 3579 
Q 3009 3575 3134 3559 
L 3138 2547 
z
" transform="scale(0.015625)"/>
     </defs>
     <use xlink:href="#DejaVuSans-Bold-25"/>
     <use xlink:href="#DejaVuSans-Bold-44" transform="translate(76.21875 0)"/>
     <use xlink:href="#DejaVuSans-Bold-56" transform="translate(143.703125 0)"/>
     <use xlink:href="#DejaVuSans-Bold-4c" transform="translate(203.21875 0)"/>
     <use xlink:href="#DejaVuSans-Bold-56" transform="translate(237.5 0)"/>
     <use xlink:href="#DejaVuSans-Bold-3" transform="translate(297.015625 0)"/>
     <use xlink:href="#DejaVuSans-Bold-59" transform="translate(331.828125 0)"/>
     <use xlink:href="#DejaVuSans-Bold-48" transform="translate(397.015625 0)"/>
     <use xlink:href="#DejaVuSans-Bold-46" transform="translate(464.84375 0)"/>
     <use xlink:href="#DejaVuSans-Bold-57" transform="translate(524.125 0)"/>
     <use xlink:href="#DejaVuSans-Bold-52" transform="translate(571.921875 0)"/>
     <use xlink:href="#DejaVuSans-Bold-55" transform="translate(640.625 0)"/>
     <use xlink:href="#DejaVuSans-Bold-56" transform="translate(689.9375 0)"/>
    </g>
   </g>
  </g>
  <g id="axes_2">
   <g id="patch_10">
    <path d="M 349.61976 289.19952 
L 616.501155 289.19952 
L 616.501155 22.318125 
L 349.61976 22.318125 
z
" style="fill: #ffffff"/>
   </g>
   <g id="patch_11">
    <path d="M 416.340109 222.479171 
L 527.54069 191.343008 
L 567.572899 89.038474 
L 456.372318 120.174636 
z
" clip-path="url(#p4bf632e7d7)" style="fill: #ddd6fe; opacity: 0.7; stroke: #7c3aed; stroke-width: 2.4; stroke-linejoin: miter"/>
   </g>
   <g id="matplotlib.axis_3"/>
   <g id="matplotlib.axis_4"/>
   <g id="line2d_17">
    <path d="M 349.61976 289.19952 
L 616.501155 289.19952 
" clip-path="url(#p4bf632e7d7)" style="fill: none; stroke: #dde3ec; stroke-width: 0.8; stroke-linecap: square"/>
   </g>
   <g id="line2d_18">
    <path d="M 349.61976 289.19952 
L 349.61976 22.318125 
" clip-path="url(#p4bf632e7d7)" style="fill: none; stroke: #dde3ec; stroke-width: 0.8; stroke-linecap: square"/>
   </g>
   <g id="line2d_19">
    <path d="M 349.61976 244.719287 
L 616.501155 244.719287 
" clip-path="url(#p4bf632e7d7)" style="fill: none; stroke: #dde3ec; stroke-width: 0.8; stroke-linecap: square"/>
   </g>
   <g id="line2d_20">
    <path d="M 394.099992 289.19952 
L 394.099992 22.318125 
" clip-path="url(#p4bf632e7d7)" style="fill: none; stroke: #dde3ec; stroke-width: 0.8; stroke-linecap: square"/>
   </g>
   <g id="line2d_21">
    <path d="M 349.61976 200.239055 
L 616.501155 200.239055 
" clip-path="url(#p4bf632e7d7)" style="fill: none; stroke: #dde3ec; stroke-width: 0.8; stroke-linecap: square"/>
   </g>
   <g id="line2d_22">
    <path d="M 438.580225 289.19952 
L 438.580225 22.318125 
" clip-path="url(#p4bf632e7d7)" style="fill: none; stroke: #dde3ec; stroke-width: 0.8; stroke-linecap: square"/>
   </g>
   <g id="line2d_23">
    <path d="M 349.61976 155.758822 
L 616.501155 155.758822 
" clip-path="url(#p4bf632e7d7)" style="fill: none; stroke: #dde3ec; stroke-width: 0.8; stroke-linecap: square"/>
   </g>
   <g id="line2d_24">
    <path d="M 483.060457 289.19952 
L 483.060457 22.318125 
" clip-path="url(#p4bf632e7d7)" style="fill: none; stroke: #dde3ec; stroke-width: 0.8; stroke-linecap: square"/>
   </g>
   <g id="line2d_25">
    <path d="M 349.61976 111.27859 
L 616.501155 111.27859 
" clip-path="url(#p4bf632e7d7)" style="fill: none; stroke: #dde3ec; stroke-width: 0.8; stroke-linecap: square"/>
   </g>
   <g id="line2d_26">
    <path d="M 527.54069 289.19952 
L 527.54069 22.318125 
" clip-path="url(#p4bf632e7d7)" style="fill: none; stroke: #dde3ec; stroke-width: 0.8; stroke-linecap: square"/>
   </g>
   <g id="line2d_27">
    <path d="M 349.61976 66.798357 
L 616.501155 66.798357 
" clip-path="url(#p4bf632e7d7)" style="fill: none; stroke: #dde3ec; stroke-width: 0.8; stroke-linecap: square"/>
   </g>
   <g id="line2d_28">
    <path d="M 572.020922 289.19952 
L 572.020922 22.318125 
" clip-path="url(#p4bf632e7d7)" style="fill: none; stroke: #dde3ec; stroke-width: 0.8; stroke-linecap: square"/>
   </g>
   <g id="line2d_29">
    <path d="M 349.61976 22.318125 
L 616.501155 22.318125 
" clip-path="url(#p4bf632e7d7)" style="fill: none; stroke: #dde3ec; stroke-width: 0.8; stroke-linecap: square"/>
   </g>
   <g id="line2d_30">
    <path d="M 616.501155 289.19952 
L 616.501155 22.318125 
" clip-path="url(#p4bf632e7d7)" style="fill: none; stroke: #dde3ec; stroke-width: 0.8; stroke-linecap: square"/>
   </g>
   <g id="line2d_31">
    <path d="M 349.61976 222.479171 
L 616.501155 222.479171 
" clip-path="url(#p4bf632e7d7)" style="fill: none; stroke: #9aa4b2; stroke-width: 1.4; stroke-linecap: square"/>
   </g>
   <g id="line2d_32">
    <path d="M 416.340109 289.19952 
L 416.340109 22.318125 
" clip-path="url(#p4bf632e7d7)" style="fill: none; stroke: #9aa4b2; stroke-width: 1.4; stroke-linecap: square"/>
   </g>
   <g id="patch_12">
    <path d="M 349.61976 289.19952 
L 349.61976 22.318125 
" style="fill: none; stroke: #d6dde8; stroke-width: 0.8; stroke-linejoin: miter; stroke-linecap: square"/>
   </g>
   <g id="patch_13">
    <path d="M 616.501155 289.19952 
L 616.501155 22.318125 
" style="fill: none; stroke: #d6dde8; stroke-width: 0.8; stroke-linejoin: miter; stroke-linecap: square"/>
   </g>
   <g id="patch_14">
    <path d="M 349.61976 289.19952 
L 616.501155 289.19952 
" style="fill: none; stroke: #d6dde8; stroke-width: 0.8; stroke-linejoin: miter; stroke-linecap: square"/>
   </g>
   <g id="patch_15">
    <path d="M 349.61976 22.318125 
L 616.501155 22.318125 
" style="fill: none; stroke: #d6dde8; stroke-width: 0.8; stroke-linejoin: miter; stroke-linecap: square"/>
   </g>
   <g id="patch_16">
    <path d="M 418.264264 221.940408 
Q 471.940372 206.911097 522.386601 192.786153 
" style="fill: none; stroke: #0f9f8f; stroke-width: 3; stroke-linecap: round"/>
    <path d="M 514.482592 191.260818 
L 522.386601 192.786153 
L 516.423928 198.194159 
z
" style="fill: #0f9f8f; stroke: #0f9f8f; stroke-width: 3; stroke-linecap: round"/>
   </g>
   <g id="text_4">
    <!-- $Ae_1=(a,c)$ -->
    <g style="fill: #0f9f8f" transform="translate(532.878318 186.005381) scale(0.11 -0.11)">
     <defs>
      <path id="DejaVuSans-Oblique-24" d="M 2356 4666 
L 3072 4666 
L 3938 0 
L 3278 0 
L 3084 1197 
L 984 1197 
L 325 0 
L -341 0 
L 2356 4666 
z
M 2584 4044 
L 1275 1722 
L 2988 1722 
L 2584 4044 
z
" transform="scale(0.015625)"/>
      <path id="DejaVuSans-20" d="M 678 2906 
L 4684 2906 
L 4684 2381 
L 678 2381 
L 678 2906 
z
M 678 1631 
L 4684 1631 
L 4684 1100 
L 678 1100 
L 678 1631 
z
" transform="scale(0.015625)"/>
      <path id="DejaVuSans-b" d="M 1984 4856 
Q 1566 4138 1362 3434 
Q 1159 2731 1159 2009 
Q 1159 1288 1364 580 
Q 1569 -128 1984 -844 
L 1484 -844 
Q 1016 -109 783 600 
Q 550 1309 550 2009 
Q 550 2706 781 3412 
Q 1013 4119 1484 4856 
L 1984 4856 
z
" transform="scale(0.015625)"/>
      <path id="DejaVuSans-Oblique-44" d="M 3438 1997 
L 3047 0 
L 2472 0 
L 2578 531 
Q 2325 219 2001 64 
Q 1678 -91 1281 -91 
Q 834 -91 548 182 
Q 263 456 263 884 
Q 263 1497 752 1853 
Q 1241 2209 2100 2209 
L 2900 2209 
L 2931 2363 
Q 2938 2388 2941 2417 
Q 2944 2447 2944 2509 
Q 2944 2788 2717 2942 
Q 2491 3097 2081 3097 
Q 1800 3097 1504 3025 
Q 1209 2953 897 2809 
L 997 3341 
Q 1322 3463 1633 3523 
Q 1944 3584 2234 3584 
Q 2853 3584 3176 3315 
Q 3500 3047 3500 2534 
Q 3500 2431 3484 2292 
Q 3469 2153 3438 1997 
z
M 2816 1759 
L 2241 1759 
Q 1534 1759 1195 1570 
Q 856 1381 856 984 
Q 856 709 1029 553 
Q 1203 397 1509 397 
Q 1978 397 2328 733 
Q 2678 1069 2791 1631 
L 2816 1759 
z
" transform="scale(0.015625)"/>
      <path id="DejaVuSans-f" d="M 750 794 
L 1409 794 
L 1409 256 
L 897 -744 
L 494 -744 
L 750 256 
L 750 794 
z
" transform="scale(0.015625)"/>
      <path id="DejaVuSans-Oblique-46" d="M 3431 3366 
L 3316 2797 
Q 3109 2947 2876 3022 
Q 2644 3097 2394 3097 
Q 2119 3097 1870 3000 
Q 1622 2903 1453 2725 
Q 1184 2453 1037 2087 
Q 891 1722 891 1331 
Q 891 859 1127 628 
Q 1363 397 1844 397 
Q 2081 397 2348 469 
Q 2616 541 2906 684 
L 2797 116 
Q 2547 13 2283 -39 
Q 2019 -91 1741 -91 
Q 1044 -91 669 257 
Q 294 606 294 1253 
Q 294 1797 489 2255 
Q 684 2713 1069 3078 
Q 1331 3328 1684 3456 
Q 2038 3584 2456 3584 
Q 2700 3584 2940 3529 
Q 3181 3475 3431 3366 
z
" transform="scale(0.015625)"/>
      <path id="DejaVuSans-c" d="M 513 4856 
L 1013 4856 
Q 1481 4119 1714 3412 
Q 1947 2706 1947 2009 
Q 1947 1309 1714 600 
Q 1481 -109 1013 -844 
L 513 -844 
Q 928 -128 1133 580 
Q 1338 1288 1338 2009 
Q 1338 2731 1133 3434 
Q 928 4138 513 4856 
z
" transform="scale(0.015625)"/>
     </defs>
     <use xlink:href="#DejaVuSans-Oblique-24" transform="translate(0 0.125)"/>
     <use xlink:href="#DejaVuSans-Oblique-48" transform="translate(68.408203 0.125)"/>
     <use xlink:href="#DejaVuSans-14" transform="translate(129.931641 -14.874951) scale(0.7)"/>
     <use xlink:href="#DejaVuSans-20" transform="translate(196.68457 0.125)"/>
     <use xlink:href="#DejaVuSans-b" transform="translate(299.956055 0.125)"/>
     <use xlink:href="#DejaVuSans-Oblique-44" transform="translate(338.969727 0.125)"/>
     <use xlink:href="#DejaVuSans-f" transform="translate(400.249023 0.125)"/>
     <use xlink:href="#DejaVuSans-Oblique-46" transform="translate(451.518555 0.125)"/>
     <use xlink:href="#DejaVuSans-c" transform="translate(506.499023 0.125)"/>
    </g>
   </g>
   <g id="patch_17">
    <path d="M 417.069455 220.615286 
Q 436.35686 171.325251 454.422033 125.158699 
" style="fill: none; stroke: #c45a11; stroke-width: 3; stroke-linecap: round"/>
    <path d="M 448.445883 130.55181 
L 454.422033 125.158699 
L 455.150831 133.175485 
z
" style="fill: #c45a11; stroke: #c45a11; stroke-width: 3; stroke-linecap: round"/>
   </g>
   <g id="text_5">
    <!-- $Ae_2=(b,d)$ -->
    <g style="fill: #c45a11" transform="translate(461.709946 114.837009) scale(0.11 -0.11)">
     <defs>
      <path id="DejaVuSans-Oblique-45" d="M 3169 2138 
Q 3169 2591 2961 2847 
Q 2753 3103 2388 3103 
Q 2122 3103 1889 2973 
Q 1656 2844 1484 2597 
Q 1303 2338 1198 1995 
Q 1094 1653 1094 1313 
Q 1094 881 1298 636 
Q 1503 391 1863 391 
Q 2134 391 2365 517 
Q 2597 644 2772 891 
Q 2950 1147 3059 1487 
Q 3169 1828 3169 2138 
z
M 1381 2969 
Q 1594 3256 1914 3420 
Q 2234 3584 2584 3584 
Q 3122 3584 3439 3221 
Q 3756 2859 3756 2241 
Q 3756 1734 3570 1259 
Q 3384 784 3041 416 
Q 2816 172 2522 40 
Q 2228 -91 1906 -91 
Q 1566 -91 1316 65 
Q 1066 222 909 531 
L 806 0 
L 231 0 
L 1178 4863 
L 1753 4863 
L 1381 2969 
z
" transform="scale(0.015625)"/>
      <path id="DejaVuSans-Oblique-47" d="M 2675 525 
Q 2444 222 2128 65 
Q 1813 -91 1428 -91 
Q 903 -91 598 267 
Q 294 625 294 1247 
Q 294 1766 478 2236 
Q 663 2706 1013 3078 
Q 1244 3325 1534 3454 
Q 1825 3584 2144 3584 
Q 2481 3584 2739 3421 
Q 2997 3259 3138 2956 
L 3513 4863 
L 4091 4863 
L 3144 0 
L 2566 0 
L 2675 525 
z
M 891 1350 
Q 891 897 1095 644 
Q 1300 391 1663 391 
Q 1931 391 2161 520 
Q 2391 650 2566 903 
Q 2750 1166 2856 1509 
Q 2963 1853 2963 2188 
Q 2963 2622 2758 2865 
Q 2553 3109 2194 3109 
Q 1922 3109 1687 2981 
Q 1453 2853 1288 2613 
Q 1106 2353 998 2009 
Q 891 1666 891 1350 
z
" transform="scale(0.015625)"/>
     </defs>
     <use xlink:href="#DejaVuSans-Oblique-24" transform="translate(0 0.015625)"/>
     <use xlink:href="#DejaVuSans-Oblique-48" transform="translate(68.408203 0.015625)"/>
     <use xlink:href="#DejaVuSans-15" transform="translate(129.931641 -14.984326) scale(0.7)"/>
     <use xlink:href="#DejaVuSans-20" transform="translate(196.68457 0.015625)"/>
     <use xlink:href="#DejaVuSans-b" transform="translate(299.956055 0.015625)"/>
     <use xlink:href="#DejaVuSans-Oblique-45" transform="translate(338.969727 0.015625)"/>
     <use xlink:href="#DejaVuSans-f" transform="translate(402.446289 0.015625)"/>
     <use xlink:href="#DejaVuSans-Oblique-47" transform="translate(453.71582 0.015625)"/>
     <use xlink:href="#DejaVuSans-c" transform="translate(517.192383 0.015625)"/>
    </g>
   </g>
   <g id="text_6">
    <!-- signed area = $\det A = ad-bc \approx 1.28$ -->
    <g transform="translate(405.248597 271.407427) scale(0.11 -0.11)">
     <defs>
      <path id="DejaVuSans-Bold-4a" d="M 2919 594 
Q 2688 288 2409 144 
Q 2131 0 1766 0 
Q 1125 0 706 504 
Q 288 1009 288 1791 
Q 288 2575 706 3076 
Q 1125 3578 1766 3578 
Q 2131 3578 2409 3434 
Q 2688 3291 2919 2981 
L 2919 3500 
L 4044 3500 
L 4044 353 
Q 4044 -491 3511 -936 
Q 2978 -1381 1966 -1381 
Q 1638 -1381 1331 -1331 
Q 1025 -1281 716 -1178 
L 716 -306 
Q 1009 -475 1290 -558 
Q 1572 -641 1856 -641 
Q 2406 -641 2662 -400 
Q 2919 -159 2919 353 
L 2919 594 
z
M 2181 2772 
Q 1834 2772 1640 2515 
Q 1447 2259 1447 1791 
Q 1447 1309 1634 1061 
Q 1822 813 2181 813 
Q 2531 813 2725 1069 
Q 2919 1325 2919 1791 
Q 2919 2259 2725 2515 
Q 2531 2772 2181 2772 
z
" transform="scale(0.015625)"/>
      <path id="DejaVuSans-Bold-51" d="M 4056 2131 
L 4056 0 
L 2931 0 
L 2931 347 
L 2931 1631 
Q 2931 2084 2911 2256 
Q 2891 2428 2841 2509 
Q 2775 2619 2662 2680 
Q 2550 2741 2406 2741 
Q 2056 2741 1856 2470 
Q 1656 2200 1656 1722 
L 1656 0 
L 538 0 
L 538 3500 
L 1656 3500 
L 1656 2988 
Q 1909 3294 2193 3439 
Q 2478 3584 2822 3584 
Q 3428 3584 3742 3212 
Q 4056 2841 4056 2131 
z
" transform="scale(0.015625)"/>
      <path id="DejaVuSans-Bold-47" d="M 2919 2988 
L 2919 4863 
L 4044 4863 
L 4044 0 
L 2919 0 
L 2919 506 
Q 2688 197 2409 53 
Q 2131 -91 1766 -91 
Q 1119 -91 703 423 
Q 288 938 288 1747 
Q 288 2556 703 3070 
Q 1119 3584 1766 3584 
Q 2128 3584 2408 3439 
Q 2688 3294 2919 2988 
z
M 2181 722 
Q 2541 722 2730 984 
Q 2919 1247 2919 1747 
Q 2919 2247 2730 2509 
Q 2541 2772 2181 2772 
Q 1825 2772 1636 2509 
Q 1447 2247 1447 1747 
Q 1447 1247 1636 984 
Q 1825 722 2181 722 
z
" transform="scale(0.015625)"/>
      <path id="DejaVuSans-Bold-20" d="M 678 3084 
L 4684 3084 
L 4684 2350 
L 678 2350 
L 678 3084 
z
M 678 1663 
L 4684 1663 
L 4684 922 
L 678 922 
L 678 1663 
z
" transform="scale(0.015625)"/>
      <path id="DejaVuSans-47" d="M 2906 2969 
L 2906 4863 
L 3481 4863 
L 3481 0 
L 2906 0 
L 2906 525 
Q 2725 213 2448 61 
Q 2172 -91 1784 -91 
Q 1150 -91 751 415 
Q 353 922 353 1747 
Q 353 2572 751 3078 
Q 1150 3584 1784 3584 
Q 2172 3584 2448 3432 
Q 2725 3281 2906 2969 
z
M 947 1747 
Q 947 1113 1208 752 
Q 1469 391 1925 391 
Q 2381 391 2643 752 
Q 2906 1113 2906 1747 
Q 2906 2381 2643 2742 
Q 2381 3103 1925 3103 
Q 1469 3103 1208 2742 
Q 947 2381 947 1747 
z
" transform="scale(0.015625)"/>
      <path id="DejaVuSans-48" d="M 3597 1894 
L 3597 1613 
L 953 1613 
Q 991 1019 1311 708 
Q 1631 397 2203 397 
Q 2534 397 2845 478 
Q 3156 559 3463 722 
L 3463 178 
Q 3153 47 2828 -22 
Q 2503 -91 2169 -91 
Q 1331 -91 842 396 
Q 353 884 353 1716 
Q 353 2575 817 3079 
Q 1281 3584 2069 3584 
Q 2775 3584 3186 3129 
Q 3597 2675 3597 1894 
z
M 3022 2063 
Q 3016 2534 2758 2815 
Q 2500 3097 2075 3097 
Q 1594 3097 1305 2825 
Q 1016 2553 972 2059 
L 3022 2063 
z
" transform="scale(0.015625)"/>
      <path id="DejaVuSans-57" d="M 1172 4494 
L 1172 3500 
L 2356 3500 
L 2356 3053 
L 1172 3053 
L 1172 1153 
Q 1172 725 1289 603 
Q 1406 481 1766 481 
L 2356 481 
L 2356 0 
L 1766 0 
Q 1100 0 847 248 
Q 594 497 594 1153 
L 594 3053 
L 172 3053 
L 172 3500 
L 594 3500 
L 594 4494 
L 1172 4494 
z
" transform="scale(0.015625)"/>
      <path id="DejaVuSans-c9c" d="M 678 2272 
L 4684 2272 
L 4684 1741 
L 678 1741 
L 678 2272 
z
" transform="scale(0.015625)"/>
      <path id="DejaVuSans-cd2" d="M 4684 1947 
L 4684 1388 
Q 4356 1144 4076 1036 
Q 3797 928 3494 928 
Q 3150 928 2694 1113 
Q 2663 1125 2641 1134 
Q 2622 1141 2575 1159 
Q 2091 1350 1797 1350 
Q 1522 1350 1253 1231 
Q 984 1113 678 850 
L 678 1409 
Q 1006 1653 1286 1761 
Q 1566 1869 1869 1869 
Q 2213 1869 2672 1684 
Q 2706 1669 2722 1663 
Q 2741 1656 2788 1638 
Q 3272 1447 3566 1447 
Q 3834 1447 4098 1564 
Q 4363 1681 4684 1947 
z
M 4684 3163 
L 4684 2606 
Q 4356 2359 4076 2251 
Q 3797 2144 3494 2144 
Q 3150 2144 2694 2328 
Q 2663 2341 2641 2350 
Q 2622 2356 2575 2375 
Q 2091 2566 1797 2566 
Q 1522 2566 1253 2447 
Q 984 2328 678 2069 
L 678 2625 
Q 1006 2869 1286 2976 
Q 1566 3084 1869 3084 
Q 2213 3084 2672 2900 
Q 2703 2888 2719 2881 
Q 2741 2872 2788 2853 
Q 3272 2663 3566 2663 
Q 3834 2663 4098 2780 
Q 4363 2897 4684 3163 
z
" transform="scale(0.015625)"/>
      <path id="DejaVuSans-11" d="M 684 794 
L 1344 794 
L 1344 0 
L 684 0 
L 684 794 
z
" transform="scale(0.015625)"/>
      <path id="DejaVuSans-1b" d="M 2034 2216 
Q 1584 2216 1326 1975 
Q 1069 1734 1069 1313 
Q 1069 891 1326 650 
Q 1584 409 2034 409 
Q 2484 409 2743 651 
Q 3003 894 3003 1313 
Q 3003 1734 2745 1975 
Q 2488 2216 2034 2216 
z
M 1403 2484 
Q 997 2584 770 2862 
Q 544 3141 544 3541 
Q 544 4100 942 4425 
Q 1341 4750 2034 4750 
Q 2731 4750 3128 4425 
Q 3525 4100 3525 3541 
Q 3525 3141 3298 2862 
Q 3072 2584 2669 2484 
Q 3125 2378 3379 2068 
Q 3634 1759 3634 1313 
Q 3634 634 3220 271 
Q 2806 -91 2034 -91 
Q 1263 -91 848 271 
Q 434 634 434 1313 
Q 434 1759 690 2068 
Q 947 2378 1403 2484 
z
M 1172 3481 
Q 1172 3119 1398 2916 
Q 1625 2713 2034 2713 
Q 2441 2713 2670 2916 
Q 2900 3119 2900 3481 
Q 2900 3844 2670 4047 
Q 2441 4250 2034 4250 
Q 1625 4250 1398 4047 
Q 1172 3844 1172 3481 
z
" transform="scale(0.015625)"/>
     </defs>
     <use xlink:href="#DejaVuSans-Bold-56" transform="translate(0 0.015625)"/>
     <use xlink:href="#DejaVuSans-Bold-4c" transform="translate(59.521484 0.015625)"/>
     <use xlink:href="#DejaVuSans-Bold-4a" transform="translate(93.798828 0.015625)"/>
     <use xlink:href="#DejaVuSans-Bold-51" transform="translate(165.380859 0.015625)"/>
     <use xlink:href="#DejaVuSans-Bold-48" transform="translate(236.572266 0.015625)"/>
     <use xlink:href="#DejaVuSans-Bold-47" transform="translate(304.394531 0.015625)"/>
     <use xlink:href="#DejaVuSans-Bold-3" transform="translate(375.976562 0.015625)"/>
     <use xlink:href="#DejaVuSans-Bold-44" transform="translate(410.791016 0.015625)"/>
     <use xlink:href="#DejaVuSans-Bold-55" transform="translate(478.271484 0.015625)"/>
     <use xlink:href="#DejaVuSans-Bold-48" transform="translate(527.587891 0.015625)"/>
     <use xlink:href="#DejaVuSans-Bold-44" transform="translate(595.410156 0.015625)"/>
     <use xlink:href="#DejaVuSans-Bold-3" transform="translate(662.890625 0.015625)"/>
     <use xlink:href="#DejaVuSans-Bold-20" transform="translate(697.705078 0.015625)"/>
     <use xlink:href="#DejaVuSans-Bold-3" transform="translate(781.494141 0.015625)"/>
     <use xlink:href="#DejaVuSans-47" transform="translate(816.308594 0.015625)"/>
     <use xlink:href="#DejaVuSans-48" transform="translate(879.785156 0.015625)"/>
     <use xlink:href="#DejaVuSans-57" transform="translate(941.308594 0.015625)"/>
     <use xlink:href="#DejaVuSans-Oblique-24" transform="translate(996.753254 0.015625)"/>
     <use xlink:href="#DejaVuSans-20" transform="translate(1084.643879 0.015625)"/>
     <use xlink:href="#DejaVuSans-Oblique-44" transform="translate(1187.915364 0.015625)"/>
     <use xlink:href="#DejaVuSans-Oblique-47" transform="translate(1249.194661 0.015625)"/>
     <use xlink:href="#DejaVuSans-c9c" transform="translate(1332.153645 0.015625)"/>
     <use xlink:href="#DejaVuSans-Oblique-45" transform="translate(1435.425129 0.015625)"/>
     <use xlink:href="#DejaVuSans-Oblique-46" transform="translate(1498.901692 0.015625)"/>
     <use xlink:href="#DejaVuSans-cd2" transform="translate(1573.364583 0.015625)"/>
     <use xlink:href="#DejaVuSans-14" transform="translate(1676.636067 0.015625)"/>
     <use xlink:href="#DejaVuSans-11" transform="translate(1740.259114 0.015625)"/>
     <use xlink:href="#DejaVuSans-15" transform="translate(1772.046223 0.015625)"/>
     <use xlink:href="#DejaVuSans-1b" transform="translate(1835.66927 0.015625)"/>
    </g>
   </g>
   <g id="text_7">
    <!-- After applying A -->
    <g transform="translate(427.860458 16.318125) scale(0.12 -0.12)">
     <defs>
      <path id="DejaVuSans-Bold-24" d="M 3419 850 
L 1538 850 
L 1241 0 
L 31 0 
L 1759 4666 
L 3194 4666 
L 4922 0 
L 3713 0 
L 3419 850 
z
M 1838 1716 
L 3116 1716 
L 2478 3572 
L 1838 1716 
z
" transform="scale(0.015625)"/>
      <path id="DejaVuSans-Bold-49" d="M 2841 4863 
L 2841 4128 
L 2222 4128 
Q 1984 4128 1890 4042 
Q 1797 3956 1797 3744 
L 1797 3500 
L 2753 3500 
L 2753 2700 
L 1797 2700 
L 1797 0 
L 678 0 
L 678 2700 
L 122 2700 
L 122 3500 
L 678 3500 
L 678 3744 
Q 678 4316 997 4589 
Q 1316 4863 1984 4863 
L 2841 4863 
z
" transform="scale(0.015625)"/>
      <path id="DejaVuSans-Bold-53" d="M 1656 506 
L 1656 -1331 
L 538 -1331 
L 538 3500 
L 1656 3500 
L 1656 2988 
Q 1888 3294 2169 3439 
Q 2450 3584 2816 3584 
Q 3463 3584 3878 3070 
Q 4294 2556 4294 1747 
Q 4294 938 3878 423 
Q 3463 -91 2816 -91 
Q 2450 -91 2169 54 
Q 1888 200 1656 506 
z
M 2400 2772 
Q 2041 2772 1848 2508 
Q 1656 2244 1656 1747 
Q 1656 1250 1848 986 
Q 2041 722 2400 722 
Q 2759 722 2948 984 
Q 3138 1247 3138 1747 
Q 3138 2247 2948 2509 
Q 2759 2772 2400 2772 
z
" transform="scale(0.015625)"/>
      <path id="DejaVuSans-Bold-4f" d="M 538 4863 
L 1656 4863 
L 1656 0 
L 538 0 
L 538 4863 
z
" transform="scale(0.015625)"/>
      <path id="DejaVuSans-Bold-5c" d="M 78 3500 
L 1197 3500 
L 2138 1125 
L 2938 3500 
L 4056 3500 
L 2584 -331 
Q 2363 -916 2067 -1148 
Q 1772 -1381 1288 -1381 
L 641 -1381 
L 641 -647 
L 991 -647 
Q 1275 -647 1404 -556 
Q 1534 -466 1606 -231 
L 1638 -134 
L 78 3500 
z
" transform="scale(0.015625)"/>
     </defs>
     <use xlink:href="#DejaVuSans-Bold-24"/>
     <use xlink:href="#DejaVuSans-Bold-49" transform="translate(77.390625 0)"/>
     <use xlink:href="#DejaVuSans-Bold-57" transform="translate(120.890625 0)"/>
     <use xlink:href="#DejaVuSans-Bold-48" transform="translate(168.6875 0)"/>
     <use xlink:href="#DejaVuSans-Bold-55" transform="translate(236.515625 0)"/>
     <use xlink:href="#DejaVuSans-Bold-3" transform="translate(285.828125 0)"/>
     <use xlink:href="#DejaVuSans-Bold-44" transform="translate(320.640625 0)"/>
     <use xlink:href="#DejaVuSans-Bold-53" transform="translate(388.125 0)"/>
     <use xlink:href="#DejaVuSans-Bold-53" transform="translate(459.703125 0)"/>
     <use xlink:href="#DejaVuSans-Bold-4f" transform="translate(531.28125 0)"/>
     <use xlink:href="#DejaVuSans-Bold-5c" transform="translate(565.5625 0)"/>
     <use xlink:href="#DejaVuSans-Bold-4c" transform="translate(630.75 0)"/>
     <use xlink:href="#DejaVuSans-Bold-51" transform="translate(665.03125 0)"/>
     <use xlink:href="#DejaVuSans-Bold-4a" transform="translate(736.21875 0)"/>
     <use xlink:href="#DejaVuSans-Bold-3" transform="translate(807.796875 0)"/>
     <use xlink:href="#DejaVuSans-Bold-24" transform="translate(842.609375 0)"/>
    </g>
   </g>
  </g>
 </g>
 <defs>
  <clipPath id="pcf58a3b7d3">
   <rect x="7.2" y="22.318125" width="266.881395" height="266.881395"/>
  </clipPath>
  <clipPath id="p4bf632e7d7">
   <rect x="349.61976" y="22.318125" width="266.881395" height="266.881395"/>
  </clipPath>
 </defs>
</svg>
