<svg xmlns="http://www.w3.org/2000/svg" viewBox="0 0 1200 460" role="img" aria-labelledby="title desc">
  <title id="title">A shape transformed by linear and non-linear maps</title>
  <desc id="desc">Three panels show the same square, grid, arrow, and landmark points before transformation, after a linear map, and after a non-linear map.</desc>
  <style>
    .figure-title { font: 700 22px system-ui, -apple-system, BlinkMacSystemFont, "Segoe UI", sans-serif; fill: #16181d; }
    .panel-title { font: 650 17px system-ui, -apple-system, BlinkMacSystemFont, "Segoe UI", sans-serif; fill: #222630; }
    .frame { fill: #ffffff; stroke: #d8dbe1; stroke-width: 1.2; }
    .grid-line { fill: none; stroke: #c9ced6; stroke-width: 1.1; }
    .axis-line { fill: none; stroke: #8f96a3; stroke-width: 1.1; opacity: 0.7; }
    .boundary { fill: none; stroke: #2f6fdd; stroke-width: 3.2; stroke-linecap: round; stroke-linejoin: round; }
    .arrow { fill: none; stroke: #1b1d24; stroke-width: 2.8; stroke-linecap: round; stroke-linejoin: round; }
  </style>
  <rect width="1200" height="460" fill="#ffffff" />
  <text x="600" y="38" class="figure-title" text-anchor="middle">The same set under linear and non-linear transformations</text>
  <text x="210.0" y="65.0" class="panel-title" text-anchor="middle">Original set</text>
<rect x="45.0" y="90.0" width="330.0" height="330.0" rx="4" class="frame" />
<polyline points="120.81,344.19 123.07,344.19 125.33,344.19 127.58,344.19 129.84,344.19 132.10,344.19 134.36,344.19 136.62,344.19 138.87,344.19 141.13,344.19 143.39,344.19 145.65,344.19 147.91,344.19 150.16,344.19 152.42,344.19 154.68,344.19 156.94,344.19 159.20,344.19 161.45,344.19 163.71,344.19 165.97,344.19 168.23,344.19 170.49,344.19 172.74,344.19 175.00,344.19 177.26,344.19 179.52,344.19 181.78,344.19 184.03,344.19 186.29,344.19 188.55,344.19 190.81,344.19 193.07,344.19 195.32,344.19 197.58,344.19 199.84,344.19 202.10,344.19 204.36,344.19 206.61,344.19 208.87,344.19 211.13,344.19 213.39,344.19 215.64,344.19 217.90,344.19 220.16,344.19 222.42,344.19 224.68,344.19 226.93,344.19 229.19,344.19 231.45,344.19 233.71,344.19 235.97,344.19 238.22,344.19 240.48,344.19 242.74,344.19 245.00,344.19 247.26,344.19 249.51,344.19 251.77,344.19 254.03,344.19 256.29,344.19 258.55,344.19 260.80,344.19 263.06,344.19 265.32,344.19 267.58,344.19 269.84,344.19 272.09,344.19 274.35,344.19 276.61,344.19 278.87,344.19 281.13,344.19 283.38,344.19 285.64,344.19 287.90,344.19 290.16,344.19 292.42,344.19 294.67,344.19 296.93,344.19 299.19,344.19" class="grid-line" />
<polyline points="120.81,344.19 120.81,341.93 120.81,339.67 120.81,337.42 120.81,335.16 120.81,332.90 120.81,330.64 120.81,328.38 120.81,326.13 120.81,323.87 120.81,321.61 120.81,319.35 120.81,317.09 120.81,314.84 120.81,312.58 120.81,310.32 120.81,308.06 120.81,305.80 120.81,303.55 120.81,301.29 120.81,299.03 120.81,296.77 120.81,294.51 120.81,292.26 120.81,290.00 120.81,287.74 120.81,285.48 120.81,283.22 120.81,280.97 120.81,278.71 120.81,276.45 120.81,274.19 120.81,271.93 120.81,269.68 120.81,267.42 120.81,265.16 120.81,262.90 120.81,260.64 120.81,258.39 120.81,256.13 120.81,253.87 120.81,251.61 120.81,249.36 120.81,247.10 120.81,244.84 120.81,242.58 120.81,240.32 120.81,238.07 120.81,235.81 120.81,233.55 120.81,231.29 120.81,229.03 120.81,226.78 120.81,224.52 120.81,222.26 120.81,220.00 120.81,217.74 120.81,215.49 120.81,213.23 120.81,210.97 120.81,208.71 120.81,206.45 120.81,204.20 120.81,201.94 120.81,199.68 120.81,197.42 120.81,195.16 120.81,192.91 120.81,190.65 120.81,188.39 120.81,186.13 120.81,183.87 120.81,181.62 120.81,179.36 120.81,177.10 120.81,174.84 120.81,172.58 120.81,170.33 120.81,168.07 120.81,165.81" class="grid-line" />
<polyline points="120.81,299.59 123.07,299.59 125.33,299.59 127.58,299.59 129.84,299.59 132.10,299.59 134.36,299.59 136.62,299.59 138.87,299.59 141.13,299.59 143.39,299.59 145.65,299.59 147.91,299.59 150.16,299.59 152.42,299.59 154.68,299.59 156.94,299.59 159.20,299.59 161.45,299.59 163.71,299.59 165.97,299.59 168.23,299.59 170.49,299.59 172.74,299.59 175.00,299.59 177.26,299.59 179.52,299.59 181.78,299.59 184.03,299.59 186.29,299.59 188.55,299.59 190.81,299.59 193.07,299.59 195.32,299.59 197.58,299.59 199.84,299.59 202.10,299.59 204.36,299.59 206.61,299.59 208.87,299.59 211.13,299.59 213.39,299.59 215.64,299.59 217.90,299.59 220.16,299.59 222.42,299.59 224.68,299.59 226.93,299.59 229.19,299.59 231.45,299.59 233.71,299.59 235.97,299.59 238.22,299.59 240.48,299.59 242.74,299.59 245.00,299.59 247.26,299.59 249.51,299.59 251.77,299.59 254.03,299.59 256.29,299.59 258.55,299.59 260.80,299.59 263.06,299.59 265.32,299.59 267.58,299.59 269.84,299.59 272.09,299.59 274.35,299.59 276.61,299.59 278.87,299.59 281.13,299.59 283.38,299.59 285.64,299.59 287.90,299.59 290.16,299.59 292.42,299.59 294.67,299.59 296.93,299.59 299.19,299.59" class="grid-line" />
<polyline points="165.41,344.19 165.41,341.93 165.41,339.67 165.41,337.42 165.41,335.16 165.41,332.90 165.41,330.64 165.41,328.38 165.41,326.13 165.41,323.87 165.41,321.61 165.41,319.35 165.41,317.09 165.41,314.84 165.41,312.58 165.41,310.32 165.41,308.06 165.41,305.80 165.41,303.55 165.41,301.29 165.41,299.03 165.41,296.77 165.41,294.51 165.41,292.26 165.41,290.00 165.41,287.74 165.41,285.48 165.41,283.22 165.41,280.97 165.41,278.71 165.41,276.45 165.41,274.19 165.41,271.93 165.41,269.68 165.41,267.42 165.41,265.16 165.41,262.90 165.41,260.64 165.41,258.39 165.41,256.13 165.41,253.87 165.41,251.61 165.41,249.36 165.41,247.10 165.41,244.84 165.41,242.58 165.41,240.32 165.41,238.07 165.41,235.81 165.41,233.55 165.41,231.29 165.41,229.03 165.41,226.78 165.41,224.52 165.41,222.26 165.41,220.00 165.41,217.74 165.41,215.49 165.41,213.23 165.41,210.97 165.41,208.71 165.41,206.45 165.41,204.20 165.41,201.94 165.41,199.68 165.41,197.42 165.41,195.16 165.41,192.91 165.41,190.65 165.41,188.39 165.41,186.13 165.41,183.87 165.41,181.62 165.41,179.36 165.41,177.10 165.41,174.84 165.41,172.58 165.41,170.33 165.41,168.07 165.41,165.81" class="grid-line" />
<polyline points="120.81,255.00 123.07,255.00 125.33,255.00 127.58,255.00 129.84,255.00 132.10,255.00 134.36,255.00 136.62,255.00 138.87,255.00 141.13,255.00 143.39,255.00 145.65,255.00 147.91,255.00 150.16,255.00 152.42,255.00 154.68,255.00 156.94,255.00 159.20,255.00 161.45,255.00 163.71,255.00 165.97,255.00 168.23,255.00 170.49,255.00 172.74,255.00 175.00,255.00 177.26,255.00 179.52,255.00 181.78,255.00 184.03,255.00 186.29,255.00 188.55,255.00 190.81,255.00 193.07,255.00 195.32,255.00 197.58,255.00 199.84,255.00 202.10,255.00 204.36,255.00 206.61,255.00 208.87,255.00 211.13,255.00 213.39,255.00 215.64,255.00 217.90,255.00 220.16,255.00 222.42,255.00 224.68,255.00 226.93,255.00 229.19,255.00 231.45,255.00 233.71,255.00 235.97,255.00 238.22,255.00 240.48,255.00 242.74,255.00 245.00,255.00 247.26,255.00 249.51,255.00 251.77,255.00 254.03,255.00 256.29,255.00 258.55,255.00 260.80,255.00 263.06,255.00 265.32,255.00 267.58,255.00 269.84,255.00 272.09,255.00 274.35,255.00 276.61,255.00 278.87,255.00 281.13,255.00 283.38,255.00 285.64,255.00 287.90,255.00 290.16,255.00 292.42,255.00 294.67,255.00 296.93,255.00 299.19,255.00" class="grid-line" />
<polyline points="210.00,344.19 210.00,341.93 210.00,339.67 210.00,337.42 210.00,335.16 210.00,332.90 210.00,330.64 210.00,328.38 210.00,326.13 210.00,323.87 210.00,321.61 210.00,319.35 210.00,317.09 210.00,314.84 210.00,312.58 210.00,310.32 210.00,308.06 210.00,305.80 210.00,303.55 210.00,301.29 210.00,299.03 210.00,296.77 210.00,294.51 210.00,292.26 210.00,290.00 210.00,287.74 210.00,285.48 210.00,283.22 210.00,280.97 210.00,278.71 210.00,276.45 210.00,274.19 210.00,271.93 210.00,269.68 210.00,267.42 210.00,265.16 210.00,262.90 210.00,260.64 210.00,258.39 210.00,256.13 210.00,253.87 210.00,251.61 210.00,249.36 210.00,247.10 210.00,244.84 210.00,242.58 210.00,240.32 210.00,238.07 210.00,235.81 210.00,233.55 210.00,231.29 210.00,229.03 210.00,226.78 210.00,224.52 210.00,222.26 210.00,220.00 210.00,217.74 210.00,215.49 210.00,213.23 210.00,210.97 210.00,208.71 210.00,206.45 210.00,204.20 210.00,201.94 210.00,199.68 210.00,197.42 210.00,195.16 210.00,192.91 210.00,190.65 210.00,188.39 210.00,186.13 210.00,183.87 210.00,181.62 210.00,179.36 210.00,177.10 210.00,174.84 210.00,172.58 210.00,170.33 210.00,168.07 210.00,165.81" class="grid-line" />
<polyline points="120.81,210.41 123.07,210.41 125.33,210.41 127.58,210.41 129.84,210.41 132.10,210.41 134.36,210.41 136.62,210.41 138.87,210.41 141.13,210.41 143.39,210.41 145.65,210.41 147.91,210.41 150.16,210.41 152.42,210.41 154.68,210.41 156.94,210.41 159.20,210.41 161.45,210.41 163.71,210.41 165.97,210.41 168.23,210.41 170.49,210.41 172.74,210.41 175.00,210.41 177.26,210.41 179.52,210.41 181.78,210.41 184.03,210.41 186.29,210.41 188.55,210.41 190.81,210.41 193.07,210.41 195.32,210.41 197.58,210.41 199.84,210.41 202.10,210.41 204.36,210.41 206.61,210.41 208.87,210.41 211.13,210.41 213.39,210.41 215.64,210.41 217.90,210.41 220.16,210.41 222.42,210.41 224.68,210.41 226.93,210.41 229.19,210.41 231.45,210.41 233.71,210.41 235.97,210.41 238.22,210.41 240.48,210.41 242.74,210.41 245.00,210.41 247.26,210.41 249.51,210.41 251.77,210.41 254.03,210.41 256.29,210.41 258.55,210.41 260.80,210.41 263.06,210.41 265.32,210.41 267.58,210.41 269.84,210.41 272.09,210.41 274.35,210.41 276.61,210.41 278.87,210.41 281.13,210.41 283.38,210.41 285.64,210.41 287.90,210.41 290.16,210.41 292.42,210.41 294.67,210.41 296.93,210.41 299.19,210.41" class="grid-line" />
<polyline points="254.59,344.19 254.59,341.93 254.59,339.67 254.59,337.42 254.59,335.16 254.59,332.90 254.59,330.64 254.59,328.38 254.59,326.13 254.59,323.87 254.59,321.61 254.59,319.35 254.59,317.09 254.59,314.84 254.59,312.58 254.59,310.32 254.59,308.06 254.59,305.80 254.59,303.55 254.59,301.29 254.59,299.03 254.59,296.77 254.59,294.51 254.59,292.26 254.59,290.00 254.59,287.74 254.59,285.48 254.59,283.22 254.59,280.97 254.59,278.71 254.59,276.45 254.59,274.19 254.59,271.93 254.59,269.68 254.59,267.42 254.59,265.16 254.59,262.90 254.59,260.64 254.59,258.39 254.59,256.13 254.59,253.87 254.59,251.61 254.59,249.36 254.59,247.10 254.59,244.84 254.59,242.58 254.59,240.32 254.59,238.07 254.59,235.81 254.59,233.55 254.59,231.29 254.59,229.03 254.59,226.78 254.59,224.52 254.59,222.26 254.59,220.00 254.59,217.74 254.59,215.49 254.59,213.23 254.59,210.97 254.59,208.71 254.59,206.45 254.59,204.20 254.59,201.94 254.59,199.68 254.59,197.42 254.59,195.16 254.59,192.91 254.59,190.65 254.59,188.39 254.59,186.13 254.59,183.87 254.59,181.62 254.59,179.36 254.59,177.10 254.59,174.84 254.59,172.58 254.59,170.33 254.59,168.07 254.59,165.81" class="grid-line" />
<polyline points="120.81,165.81 123.07,165.81 125.33,165.81 127.58,165.81 129.84,165.81 132.10,165.81 134.36,165.81 136.62,165.81 138.87,165.81 141.13,165.81 143.39,165.81 145.65,165.81 147.91,165.81 150.16,165.81 152.42,165.81 154.68,165.81 156.94,165.81 159.20,165.81 161.45,165.81 163.71,165.81 165.97,165.81 168.23,165.81 170.49,165.81 172.74,165.81 175.00,165.81 177.26,165.81 179.52,165.81 181.78,165.81 184.03,165.81 186.29,165.81 188.55,165.81 190.81,165.81 193.07,165.81 195.32,165.81 197.58,165.81 199.84,165.81 202.10,165.81 204.36,165.81 206.61,165.81 208.87,165.81 211.13,165.81 213.39,165.81 215.64,165.81 217.90,165.81 220.16,165.81 222.42,165.81 224.68,165.81 226.93,165.81 229.19,165.81 231.45,165.81 233.71,165.81 235.97,165.81 238.22,165.81 240.48,165.81 242.74,165.81 245.00,165.81 247.26,165.81 249.51,165.81 251.77,165.81 254.03,165.81 256.29,165.81 258.55,165.81 260.80,165.81 263.06,165.81 265.32,165.81 267.58,165.81 269.84,165.81 272.09,165.81 274.35,165.81 276.61,165.81 278.87,165.81 281.13,165.81 283.38,165.81 285.64,165.81 287.90,165.81 290.16,165.81 292.42,165.81 294.67,165.81 296.93,165.81 299.19,165.81" class="grid-line" />
<polyline points="299.19,344.19 299.19,341.93 299.19,339.67 299.19,337.42 299.19,335.16 299.19,332.90 299.19,330.64 299.19,328.38 299.19,326.13 299.19,323.87 299.19,321.61 299.19,319.35 299.19,317.09 299.19,314.84 299.19,312.58 299.19,310.32 299.19,308.06 299.19,305.80 299.19,303.55 299.19,301.29 299.19,299.03 299.19,296.77 299.19,294.51 299.19,292.26 299.19,290.00 299.19,287.74 299.19,285.48 299.19,283.22 299.19,280.97 299.19,278.71 299.19,276.45 299.19,274.19 299.19,271.93 299.19,269.68 299.19,267.42 299.19,265.16 299.19,262.90 299.19,260.64 299.19,258.39 299.19,256.13 299.19,253.87 299.19,251.61 299.19,249.36 299.19,247.10 299.19,244.84 299.19,242.58 299.19,240.32 299.19,238.07 299.19,235.81 299.19,233.55 299.19,231.29 299.19,229.03 299.19,226.78 299.19,224.52 299.19,222.26 299.19,220.00 299.19,217.74 299.19,215.49 299.19,213.23 299.19,210.97 299.19,208.71 299.19,206.45 299.19,204.20 299.19,201.94 299.19,199.68 299.19,197.42 299.19,195.16 299.19,192.91 299.19,190.65 299.19,188.39 299.19,186.13 299.19,183.87 299.19,181.62 299.19,179.36 299.19,177.10 299.19,174.84 299.19,172.58 299.19,170.33 299.19,168.07 299.19,165.81" class="grid-line" />
<polyline points="45.00,255.00 375.00,255.00" class="axis-line" />
<polyline points="210.00,420.00 210.00,90.00" class="axis-line" />
<polyline points="120.81,344.19 123.07,344.19 125.33,344.19 127.58,344.19 129.84,344.19 132.10,344.19 134.36,344.19 136.62,344.19 138.87,344.19 141.13,344.19 143.39,344.19 145.65,344.19 147.91,344.19 150.16,344.19 152.42,344.19 154.68,344.19 156.94,344.19 159.20,344.19 161.45,344.19 163.71,344.19 165.97,344.19 168.23,344.19 170.49,344.19 172.74,344.19 175.00,344.19 177.26,344.19 179.52,344.19 181.78,344.19 184.03,344.19 186.29,344.19 188.55,344.19 190.81,344.19 193.07,344.19 195.32,344.19 197.58,344.19 199.84,344.19 202.10,344.19 204.36,344.19 206.61,344.19 208.87,344.19 211.13,344.19 213.39,344.19 215.64,344.19 217.90,344.19 220.16,344.19 222.42,344.19 224.68,344.19 226.93,344.19 229.19,344.19 231.45,344.19 233.71,344.19 235.97,344.19 238.22,344.19 240.48,344.19 242.74,344.19 245.00,344.19 247.26,344.19 249.51,344.19 251.77,344.19 254.03,344.19 256.29,344.19 258.55,344.19 260.80,344.19 263.06,344.19 265.32,344.19 267.58,344.19 269.84,344.19 272.09,344.19 274.35,344.19 276.61,344.19 278.87,344.19 281.13,344.19 283.38,344.19 285.64,344.19 287.90,344.19 290.16,344.19 292.42,344.19 294.67,344.19 296.93,344.19 299.19,344.19 299.19,341.93 299.19,339.67 299.19,337.42 299.19,335.16 299.19,332.90 299.19,330.64 299.19,328.38 299.19,326.13 299.19,323.87 299.19,321.61 299.19,319.35 299.19,317.09 299.19,314.84 299.19,312.58 299.19,310.32 299.19,308.06 299.19,305.80 299.19,303.55 299.19,301.29 299.19,299.03 299.19,296.77 299.19,294.51 299.19,292.26 299.19,290.00 299.19,287.74 299.19,285.48 299.19,283.22 299.19,280.97 299.19,278.71 299.19,276.45 299.19,274.19 299.19,271.93 299.19,269.68 299.19,267.42 299.19,265.16 299.19,262.90 299.19,260.64 299.19,258.39 299.19,256.13 299.19,253.87 299.19,251.61 299.19,249.36 299.19,247.10 299.19,244.84 299.19,242.58 299.19,240.32 299.19,238.07 299.19,235.81 299.19,233.55 299.19,231.29 299.19,229.03 299.19,226.78 299.19,224.52 299.19,222.26 299.19,220.00 299.19,217.74 299.19,215.49 299.19,213.23 299.19,210.97 299.19,208.71 299.19,206.45 299.19,204.20 299.19,201.94 299.19,199.68 299.19,197.42 299.19,195.16 299.19,192.91 299.19,190.65 299.19,188.39 299.19,186.13 299.19,183.87 299.19,181.62 299.19,179.36 299.19,177.10 299.19,174.84 299.19,172.58 299.19,170.33 299.19,168.07 299.19,165.81 296.93,165.81 294.67,165.81 292.42,165.81 290.16,165.81 287.90,165.81 285.64,165.81 283.38,165.81 281.13,165.81 278.87,165.81 276.61,165.81 274.35,165.81 272.09,165.81 269.84,165.81 267.58,165.81 265.32,165.81 263.06,165.81 260.80,165.81 258.55,165.81 256.29,165.81 254.03,165.81 251.77,165.81 249.51,165.81 247.26,165.81 245.00,165.81 242.74,165.81 240.48,165.81 238.22,165.81 235.97,165.81 233.71,165.81 231.45,165.81 229.19,165.81 226.93,165.81 224.68,165.81 222.42,165.81 220.16,165.81 217.90,165.81 215.64,165.81 213.39,165.81 211.13,165.81 208.87,165.81 206.61,165.81 204.36,165.81 202.10,165.81 199.84,165.81 197.58,165.81 195.32,165.81 193.07,165.81 190.81,165.81 188.55,165.81 186.29,165.81 184.03,165.81 181.78,165.81 179.52,165.81 177.26,165.81 175.00,165.81 172.74,165.81 170.49,165.81 168.23,165.81 165.97,165.81 163.71,165.81 161.45,165.81 159.20,165.81 156.94,165.81 154.68,165.81 152.42,165.81 150.16,165.81 147.91,165.81 145.65,165.81 143.39,165.81 141.13,165.81 138.87,165.81 136.62,165.81 134.36,165.81 132.10,165.81 129.84,165.81 127.58,165.81 125.33,165.81 123.07,165.81 120.81,165.81 120.81,168.07 120.81,170.33 120.81,172.58 120.81,174.84 120.81,177.10 120.81,179.36 120.81,181.62 120.81,183.87 120.81,186.13 120.81,188.39 120.81,190.65 120.81,192.91 120.81,195.16 120.81,197.42 120.81,199.68 120.81,201.94 120.81,204.20 120.81,206.45 120.81,208.71 120.81,210.97 120.81,213.23 120.81,215.49 120.81,217.74 120.81,220.00 120.81,222.26 120.81,224.52 120.81,226.78 120.81,229.03 120.81,231.29 120.81,233.55 120.81,235.81 120.81,238.07 120.81,240.32 120.81,242.58 120.81,244.84 120.81,247.10 120.81,249.36 120.81,251.61 120.81,253.87 120.81,256.13 120.81,258.39 120.81,260.64 120.81,262.90 120.81,265.16 120.81,267.42 120.81,269.68 120.81,271.93 120.81,274.19 120.81,276.45 120.81,278.71 120.81,280.97 120.81,283.22 120.81,285.48 120.81,287.74 120.81,290.00 120.81,292.26 120.81,294.51 120.81,296.77 120.81,299.03 120.81,301.29 120.81,303.55 120.81,305.80 120.81,308.06 120.81,310.32 120.81,312.58 120.81,314.84 120.81,317.09 120.81,319.35 120.81,321.61 120.81,323.87 120.81,326.13 120.81,328.38 120.81,330.64 120.81,332.90 120.81,335.16 120.81,337.42 120.81,339.67 120.81,341.93 120.81,344.19" class="boundary" />
<polyline points="152.03,286.22 152.99,286.22 153.95,286.22 154.91,286.22 155.87,286.22 156.83,286.22 157.78,286.22 158.74,286.22 159.70,286.22 160.66,286.22 161.62,286.22 162.58,286.22 163.54,286.22 164.50,286.22 165.46,286.22 166.42,286.22 167.38,286.22 168.34,286.22 169.30,286.22 170.26,286.22 171.22,286.22 172.18,286.22 173.14,286.22 174.10,286.22 175.06,286.22 176.02,286.22 176.98,286.22 177.94,286.22 178.90,286.22 179.86,286.22 180.82,286.22 181.78,286.22 182.74,286.22 183.69,286.22 184.65,286.22 185.61,286.22 186.57,286.22 187.53,286.22 188.49,286.22 189.45,286.22 190.41,286.22 191.37,286.22 192.33,286.22 193.29,286.22 194.25,286.22 195.21,286.22 196.17,286.22 197.13,286.22 198.09,286.22 199.05,286.22 200.01,286.22 200.97,286.22 201.93,286.22 202.89,286.22 203.85,286.22 204.81,286.22 205.77,286.22 206.73,286.22 207.69,286.22 208.65,286.22 209.60,286.22 210.56,286.22 211.52,286.22 212.48,286.22 213.44,286.22 214.40,286.22 215.36,286.22 216.32,286.22 217.28,286.22 218.24,286.22 219.20,286.22 220.16,286.22 221.12,286.22 222.08,286.22 223.04,286.22 224.00,286.22 224.96,286.22 225.92,286.22 226.88,286.22 227.84,286.22 227.84,286.59 227.84,286.96 227.84,287.33 227.84,287.71 227.84,288.08 227.84,288.45 227.84,288.82 227.84,289.20 227.84,289.57 227.84,289.94 227.84,290.31 227.84,290.69 227.84,291.06 227.84,291.43 227.84,291.80 227.84,292.18 227.84,292.55 227.84,292.92 227.84,293.29 227.84,293.67 227.84,294.04 227.84,294.41 227.84,294.79 227.84,295.16 227.84,295.53 227.84,295.90 227.84,296.28 227.84,296.65 227.84,297.02 227.84,297.39 227.84,297.77 227.84,298.14 227.84,298.51 227.84,298.88 227.84,299.26 227.84,299.63 227.84,300.00 227.84,300.37 227.84,300.75 227.84,301.12 227.84,301.49 227.84,301.86 227.84,302.24 227.84,302.61 227.84,302.98 227.84,303.35 227.84,303.73 227.84,304.10 227.84,304.47 227.84,304.84 227.84,305.22 227.84,305.59 227.84,305.96 227.84,306.33 227.84,306.71 227.84,307.08 227.84,307.45 227.84,307.82 227.84,308.20 227.84,308.57 227.84,308.94 227.84,309.32 227.84,309.69 227.84,310.06 227.84,310.43 227.84,310.81 227.84,311.18 227.84,311.55 227.84,311.92 227.84,312.30 227.84,312.67 227.84,313.04 227.84,313.41 227.84,313.79 227.84,314.16 227.84,314.53 227.84,314.90 227.84,315.28 227.84,315.65 228.46,314.88 229.08,314.11 229.70,313.35 230.32,312.58 230.94,311.81 231.56,311.04 232.18,310.27 232.81,309.51 233.43,308.74 234.05,307.97 234.67,307.20 235.29,306.44 235.91,305.67 236.53,304.90 237.15,304.13 237.77,303.37 238.39,302.60 239.01,301.83 239.64,301.06 240.26,300.29 240.88,299.53 241.50,298.76 242.12,297.99 242.74,297.22 243.36,296.46 243.98,295.69 244.60,294.92 245.22,294.15 245.85,293.39 246.47,292.62 247.09,291.85 247.71,291.08 248.33,290.31 248.95,289.55 249.57,288.78 250.19,288.01 250.81,287.24 251.43,286.48 252.05,285.71 252.68,284.94 253.30,284.17 253.92,283.41 254.54,282.64 255.16,281.87 255.78,281.10 256.40,280.33 257.02,279.57 257.64,278.80 258.26,278.03 258.88,277.26 259.51,276.50 260.13,275.73 260.75,274.96 261.37,274.19 261.99,273.42 262.61,272.66 263.23,271.89 263.85,271.12 264.47,270.35 265.09,269.59 265.72,268.82 266.34,268.05 266.96,267.28 267.58,266.52 268.20,265.75 268.82,264.98 269.44,264.21 270.06,263.44 270.68,262.68 271.30,261.91 271.92,261.14 272.55,260.37 273.17,259.61 273.79,258.84 274.41,258.07 275.03,257.30 275.65,256.54 276.27,255.77 276.89,255.00 276.27,254.23 275.65,253.46 275.03,252.70 274.41,251.93 273.79,251.16 273.17,250.39 272.55,249.63 271.92,248.86 271.30,248.09 270.68,247.32 270.06,246.56 269.44,245.79 268.82,245.02 268.20,244.25 267.58,243.48 266.96,242.72 266.34,241.95 265.72,241.18 265.09,240.41 264.47,239.65 263.85,238.88 263.23,238.11 262.61,237.34 261.99,236.58 261.37,235.81 260.75,235.04 260.13,234.27 259.51,233.50 258.88,232.74 258.26,231.97 257.64,231.20 257.02,230.43 256.40,229.67 255.78,228.90 255.16,228.13 254.54,227.36 253.92,226.59 253.30,225.83 252.68,225.06 252.05,224.29 251.43,223.52 250.81,222.76 250.19,221.99 249.57,221.22 248.95,220.45 248.33,219.69 247.71,218.92 247.09,218.15 246.47,217.38 245.85,216.61 245.22,215.85 244.60,215.08 243.98,214.31 243.36,213.54 242.74,212.78 242.12,212.01 241.50,211.24 240.88,210.47 240.26,209.71 239.64,208.94 239.01,208.17 238.39,207.40 237.77,206.63 237.15,205.87 236.53,205.10 235.91,204.33 235.29,203.56 234.67,202.80 234.05,202.03 233.43,201.26 232.81,200.49 232.18,199.73 231.56,198.96 230.94,198.19 230.32,197.42 229.70,196.65 229.08,195.89 228.46,195.12 227.84,194.35 227.84,194.72 227.84,195.10 227.84,195.47 227.84,195.84 227.84,196.21 227.84,196.59 227.84,196.96 227.84,197.33 227.84,197.70 227.84,198.08 227.84,198.45 227.84,198.82 227.84,199.19 227.84,199.57 227.84,199.94 227.84,200.31 227.84,200.68 227.84,201.06 227.84,201.43 227.84,201.80 227.84,202.18 227.84,202.55 227.84,202.92 227.84,203.29 227.84,203.67 227.84,204.04 227.84,204.41 227.84,204.78 227.84,205.16 227.84,205.53 227.84,205.90 227.84,206.27 227.84,206.65 227.84,207.02 227.84,207.39 227.84,207.76 227.84,208.14 227.84,208.51 227.84,208.88 227.84,209.25 227.84,209.63 227.84,210.00 227.84,210.37 227.84,210.74 227.84,211.12 227.84,211.49 227.84,211.86 227.84,212.23 227.84,212.61 227.84,212.98 227.84,213.35 227.84,213.72 227.84,214.10 227.84,214.47 227.84,214.84 227.84,215.21 227.84,215.59 227.84,215.96 227.84,216.33 227.84,216.71 227.84,217.08 227.84,217.45 227.84,217.82 227.84,218.20 227.84,218.57 227.84,218.94 227.84,219.31 227.84,219.69 227.84,220.06 227.84,220.43 227.84,220.80 227.84,221.18 227.84,221.55 227.84,221.92 227.84,222.29 227.84,222.67 227.84,223.04 227.84,223.41 227.84,223.78 226.88,223.78 225.92,223.78 224.96,223.78 224.00,223.78 223.04,223.78 222.08,223.78 221.12,223.78 220.16,223.78 219.20,223.78 218.24,223.78 217.28,223.78 216.32,223.78 215.36,223.78 214.40,223.78 213.44,223.78 212.48,223.78 211.52,223.78 210.56,223.78 209.60,223.78 208.65,223.78 207.69,223.78 206.73,223.78 205.77,223.78 204.81,223.78 203.85,223.78 202.89,223.78 201.93,223.78 200.97,223.78 200.01,223.78 199.05,223.78 198.09,223.78 197.13,223.78 196.17,223.78 195.21,223.78 194.25,223.78 193.29,223.78 192.33,223.78 191.37,223.78 190.41,223.78 189.45,223.78 188.49,223.78 187.53,223.78 186.57,223.78 185.61,223.78 184.65,223.78 183.69,223.78 182.74,223.78 181.78,223.78 180.82,223.78 179.86,223.78 178.90,223.78 177.94,223.78 176.98,223.78 176.02,223.78 175.06,223.78 174.10,223.78 173.14,223.78 172.18,223.78 171.22,223.78 170.26,223.78 169.30,223.78 168.34,223.78 167.38,223.78 166.42,223.78 165.46,223.78 164.50,223.78 163.54,223.78 162.58,223.78 161.62,223.78 160.66,223.78 159.70,223.78 158.74,223.78 157.78,223.78 156.83,223.78 155.87,223.78 154.91,223.78 153.95,223.78 152.99,223.78 152.03,223.78 152.03,224.57 152.03,225.36 152.03,226.15 152.03,226.94 152.03,227.74 152.03,228.53 152.03,229.32 152.03,230.11 152.03,230.90 152.03,231.69 152.03,232.48 152.03,233.27 152.03,234.06 152.03,234.85 152.03,235.64 152.03,236.43 152.03,237.22 152.03,238.01 152.03,238.80 152.03,239.59 152.03,240.38 152.03,241.17 152.03,241.96 152.03,242.75 152.03,243.54 152.03,244.33 152.03,245.12 152.03,245.91 152.03,246.70 152.03,247.49 152.03,248.28 152.03,249.07 152.03,249.86 152.03,250.65 152.03,251.44 152.03,252.23 152.03,253.02 152.03,253.81 152.03,254.60 152.03,255.40 152.03,256.19 152.03,256.98 152.03,257.77 152.03,258.56 152.03,259.35 152.03,260.14 152.03,260.93 152.03,261.72 152.03,262.51 152.03,263.30 152.03,264.09 152.03,264.88 152.03,265.67 152.03,266.46 152.03,267.25 152.03,268.04 152.03,268.83 152.03,269.62 152.03,270.41 152.03,271.20 152.03,271.99 152.03,272.78 152.03,273.57 152.03,274.36 152.03,275.15 152.03,275.94 152.03,276.73 152.03,277.52 152.03,278.31 152.03,279.10 152.03,279.89 152.03,280.68 152.03,281.47 152.03,282.26 152.03,283.06 152.03,283.85 152.03,284.64 152.03,285.43 152.03,286.22" class="arrow" />
<circle cx="145.78" cy="190.78" r="6.5" fill="#d64045" stroke="#ffffff" stroke-width="1.5" />
<circle cx="274.22" cy="190.78" r="6.5" fill="#f4a261" stroke="#ffffff" stroke-width="1.5" />
<circle cx="274.22" cy="319.22" r="6.5" fill="#2a9d8f" stroke="#ffffff" stroke-width="1.5" /><text x="600.0" y="65.0" class="panel-title" text-anchor="middle">Linear map</text>
<rect x="435.0" y="90.0" width="330.0" height="330.0" rx="4" class="frame" />
<polyline points="448.38,312.97 450.98,313.54 453.57,314.10 456.17,314.67 458.76,315.23 461.36,315.80 463.96,316.36 466.55,316.92 469.15,317.49 471.75,318.05 474.34,318.62 476.94,319.18 479.54,319.75 482.13,320.31 484.73,320.88 487.33,321.44 489.92,322.00 492.52,322.57 495.12,323.13 497.71,323.70 500.31,324.26 502.91,324.83 505.50,325.39 508.10,325.96 510.70,326.52 513.29,327.09 515.89,327.65 518.49,328.21 521.08,328.78 523.68,329.34 526.28,329.91 528.87,330.47 531.47,331.04 534.07,331.60 536.66,332.17 539.26,332.73 541.86,333.29 544.45,333.86 547.05,334.42 549.65,334.99 552.24,335.55 554.84,336.12 557.44,336.68 560.03,337.25 562.63,337.81 565.23,338.37 567.82,338.94 570.42,339.50 573.02,340.07 575.61,340.63 578.21,341.20 580.81,341.76 583.40,342.33 586.00,342.89 588.60,343.46 591.19,344.02 593.79,344.58 596.39,345.15 598.98,345.71 601.58,346.28 604.18,346.84 606.77,347.41 609.37,347.97 611.97,348.54 614.56,349.10 617.16,349.66 619.76,350.23 622.35,350.79 624.95,351.36 627.55,351.92 630.14,352.49 632.74,353.05 635.34,353.62 637.93,354.18 640.53,354.75 643.13,355.31 645.72,355.87 648.32,356.44 650.92,357.00 653.51,357.57" class="grid-line" />
<polyline points="448.38,312.97 449.62,310.94 450.86,308.91 452.10,306.88 453.35,304.84 454.59,302.81 455.83,300.78 457.07,298.75 458.31,296.72 459.56,294.68 460.80,292.65 462.04,290.62 463.28,288.59 464.52,286.55 465.76,284.52 467.01,282.49 468.25,280.46 469.49,278.43 470.73,276.39 471.97,274.36 473.22,272.33 474.46,270.30 475.70,268.27 476.94,266.23 478.18,264.20 479.43,262.17 480.67,260.14 481.91,258.10 483.15,256.07 484.39,254.04 485.63,252.01 486.88,249.98 488.12,247.94 489.36,245.91 490.60,243.88 491.84,241.85 493.09,239.82 494.33,237.78 495.57,235.75 496.81,233.72 498.05,231.69 499.30,229.65 500.54,227.62 501.78,225.59 503.02,223.56 504.26,221.53 505.50,219.49 506.75,217.46 507.99,215.43 509.23,213.40 510.47,211.37 511.71,209.33 512.96,207.30 514.20,205.27 515.44,203.24 516.68,201.20 517.92,199.17 519.17,197.14 520.41,195.11 521.65,193.08 522.89,191.04 524.13,189.01 525.37,186.98 526.62,184.95 527.86,182.91 529.10,180.88 530.34,178.85 531.58,176.82 532.83,174.79 534.07,172.75 535.31,170.72 536.55,168.69 537.79,166.66 539.04,164.63 540.28,162.59 541.52,160.56 542.76,158.53 544.00,156.50 545.24,154.46 546.49,152.43" class="grid-line" />
<polyline points="472.91,272.84 475.50,273.40 478.10,273.97 480.70,274.53 483.29,275.10 485.89,275.66 488.49,276.22 491.08,276.79 493.68,277.35 496.28,277.92 498.87,278.48 501.47,279.05 504.07,279.61 506.66,280.18 509.26,280.74 511.86,281.31 514.45,281.87 517.05,282.43 519.65,283.00 522.24,283.56 524.84,284.13 527.43,284.69 530.03,285.26 532.63,285.82 535.22,286.39 537.82,286.95 540.42,287.51 543.01,288.08 545.61,288.64 548.21,289.21 550.80,289.77 553.40,290.34 556.00,290.90 558.59,291.47 561.19,292.03 563.79,292.59 566.38,293.16 568.98,293.72 571.58,294.29 574.17,294.85 576.77,295.42 579.37,295.98 581.96,296.55 584.56,297.11 587.16,297.68 589.75,298.24 592.35,298.80 594.95,299.37 597.54,299.93 600.14,300.50 602.74,301.06 605.33,301.63 607.93,302.19 610.53,302.76 613.12,303.32 615.72,303.88 618.32,304.45 620.91,305.01 623.51,305.58 626.11,306.14 628.70,306.71 631.30,307.27 633.90,307.84 636.49,308.40 639.09,308.97 641.69,309.53 644.28,310.09 646.88,310.66 649.48,311.22 652.07,311.79 654.67,312.35 657.27,312.92 659.86,313.48 662.46,314.05 665.06,314.61 667.65,315.17 670.25,315.74 672.85,316.30 675.44,316.87 678.04,317.43" class="grid-line" />
<polyline points="499.66,324.12 500.90,322.09 502.15,320.06 503.39,318.03 504.63,315.99 505.87,313.96 507.11,311.93 508.36,309.90 509.60,307.86 510.84,305.83 512.08,303.80 513.32,301.77 514.56,299.74 515.81,297.70 517.05,295.67 518.29,293.64 519.53,291.61 520.77,289.57 522.02,287.54 523.26,285.51 524.50,283.48 525.74,281.45 526.98,279.41 528.23,277.38 529.47,275.35 530.71,273.32 531.95,271.29 533.19,269.25 534.43,267.22 535.68,265.19 536.92,263.16 538.16,261.12 539.40,259.09 540.64,257.06 541.89,255.03 543.13,253.00 544.37,250.96 545.61,248.93 546.85,246.90 548.10,244.87 549.34,242.84 550.58,240.80 551.82,238.77 553.06,236.74 554.30,234.71 555.55,232.67 556.79,230.64 558.03,228.61 559.27,226.58 560.51,224.55 561.76,222.51 563.00,220.48 564.24,218.45 565.48,216.42 566.72,214.39 567.97,212.35 569.21,210.32 570.45,208.29 571.69,206.26 572.93,204.22 574.17,202.19 575.42,200.16 576.66,198.13 577.90,196.10 579.14,194.06 580.38,192.03 581.63,190.00 582.87,187.97 584.11,185.93 585.35,183.90 586.59,181.87 587.84,179.84 589.08,177.81 590.32,175.77 591.56,173.74 592.80,171.71 594.04,169.68 595.29,167.65 596.53,165.61 597.77,163.58" class="grid-line" />
<polyline points="497.43,232.70 500.03,233.27 502.63,233.83 505.22,234.40 507.82,234.96 510.42,235.53 513.01,236.09 515.61,236.65 518.21,237.22 520.80,237.78 523.40,238.35 526.00,238.91 528.59,239.48 531.19,240.04 533.79,240.61 536.38,241.17 538.98,241.73 541.58,242.30 544.17,242.86 546.77,243.43 549.37,243.99 551.96,244.56 554.56,245.12 557.16,245.69 559.75,246.25 562.35,246.81 564.95,247.38 567.54,247.94 570.14,248.51 572.74,249.07 575.33,249.64 577.93,250.20 580.53,250.77 583.12,251.33 585.72,251.90 588.32,252.46 590.91,253.02 593.51,253.59 596.11,254.15 598.70,254.72 601.30,255.28 603.89,255.85 606.49,256.41 609.09,256.98 611.68,257.54 614.28,258.10 616.88,258.67 619.47,259.23 622.07,259.80 624.67,260.36 627.26,260.93 629.86,261.49 632.46,262.06 635.05,262.62 637.65,263.19 640.25,263.75 642.84,264.31 645.44,264.88 648.04,265.44 650.63,266.01 653.23,266.57 655.83,267.14 658.42,267.70 661.02,268.27 663.62,268.83 666.21,269.39 668.81,269.96 671.41,270.52 674.00,271.09 676.60,271.65 679.20,272.22 681.79,272.78 684.39,273.35 686.99,273.91 689.58,274.47 692.18,275.04 694.78,275.60 697.37,276.17 699.97,276.73 702.57,277.30" class="grid-line" />
<polyline points="550.95,335.27 552.19,333.24 553.43,331.21 554.67,329.17 555.91,327.14 557.16,325.11 558.40,323.08 559.64,321.05 560.88,319.01 562.12,316.98 563.36,314.95 564.61,312.92 565.85,310.88 567.09,308.85 568.33,306.82 569.57,304.79 570.82,302.76 572.06,300.72 573.30,298.69 574.54,296.66 575.78,294.63 577.03,292.59 578.27,290.56 579.51,288.53 580.75,286.50 581.99,284.47 583.23,282.43 584.48,280.40 585.72,278.37 586.96,276.34 588.20,274.31 589.44,272.27 590.69,270.24 591.93,268.21 593.17,266.18 594.41,264.14 595.65,262.11 596.90,260.08 598.14,258.05 599.38,256.02 600.62,253.98 601.86,251.95 603.10,249.92 604.35,247.89 605.59,245.86 606.83,243.82 608.07,241.79 609.31,239.76 610.56,237.73 611.80,235.69 613.04,233.66 614.28,231.63 615.52,229.60 616.77,227.57 618.01,225.53 619.25,223.50 620.49,221.47 621.73,219.44 622.97,217.41 624.22,215.37 625.46,213.34 626.70,211.31 627.94,209.28 629.18,207.24 630.43,205.21 631.67,203.18 632.91,201.15 634.15,199.12 635.39,197.08 636.64,195.05 637.88,193.02 639.12,190.99 640.36,188.95 641.60,186.92 642.84,184.89 644.09,182.86 645.33,180.83 646.57,178.79 647.81,176.76 649.05,174.73" class="grid-line" />
<polyline points="521.96,192.57 524.56,193.13 527.15,193.70 529.75,194.26 532.35,194.83 534.94,195.39 537.54,195.95 540.14,196.52 542.73,197.08 545.33,197.65 547.93,198.21 550.52,198.78 553.12,199.34 555.72,199.91 558.31,200.47 560.91,201.03 563.51,201.60 566.10,202.16 568.70,202.73 571.30,203.29 573.89,203.86 576.49,204.42 579.09,204.99 581.68,205.55 584.28,206.12 586.88,206.68 589.47,207.24 592.07,207.81 594.67,208.37 597.26,208.94 599.86,209.50 602.46,210.07 605.05,210.63 607.65,211.20 610.25,211.76 612.84,212.32 615.44,212.89 618.04,213.45 620.63,214.02 623.23,214.58 625.83,215.15 628.42,215.71 631.02,216.28 633.62,216.84 636.21,217.41 638.81,217.97 641.41,218.53 644.00,219.10 646.60,219.66 649.20,220.23 651.79,220.79 654.39,221.36 656.99,221.92 659.58,222.49 662.18,223.05 664.78,223.61 667.37,224.18 669.97,224.74 672.57,225.31 675.16,225.87 677.76,226.44 680.35,227.00 682.95,227.57 685.55,228.13 688.14,228.69 690.74,229.26 693.34,229.82 695.93,230.39 698.53,230.95 701.13,231.52 703.72,232.08 706.32,232.65 708.92,233.21 711.51,233.78 714.11,234.34 716.71,234.90 719.30,235.47 721.90,236.03 724.50,236.60 727.09,237.16" class="grid-line" />
<polyline points="602.23,346.42 603.47,344.39 604.71,342.35 605.96,340.32 607.20,338.29 608.44,336.26 609.68,334.23 610.92,332.19 612.16,330.16 613.41,328.13 614.65,326.10 615.89,324.07 617.13,322.03 618.37,320.00 619.62,317.97 620.86,315.94 622.10,313.90 623.34,311.87 624.58,309.84 625.83,307.81 627.07,305.78 628.31,303.74 629.55,301.71 630.79,299.68 632.03,297.65 633.28,295.61 634.52,293.58 635.76,291.55 637.00,289.52 638.24,287.49 639.49,285.45 640.73,283.42 641.97,281.39 643.21,279.36 644.45,277.33 645.70,275.29 646.94,273.26 648.18,271.23 649.42,269.20 650.66,267.16 651.90,265.13 653.15,263.10 654.39,261.07 655.63,259.04 656.87,257.00 658.11,254.97 659.36,252.94 660.60,250.91 661.84,248.88 663.08,246.84 664.32,244.81 665.57,242.78 666.81,240.75 668.05,238.71 669.29,236.68 670.53,234.65 671.77,232.62 673.02,230.59 674.26,228.55 675.50,226.52 676.74,224.49 677.98,222.46 679.23,220.43 680.47,218.39 681.71,216.36 682.95,214.33 684.19,212.30 685.44,210.26 686.68,208.23 687.92,206.20 689.16,204.17 690.40,202.14 691.64,200.10 692.89,198.07 694.13,196.04 695.37,194.01 696.61,191.97 697.85,189.94 699.10,187.91 700.34,185.88" class="grid-line" />
<polyline points="546.49,152.43 549.08,153.00 551.68,153.56 554.28,154.13 556.87,154.69 559.47,155.25 562.07,155.82 564.66,156.38 567.26,156.95 569.86,157.51 572.45,158.08 575.05,158.64 577.65,159.21 580.24,159.77 582.84,160.34 585.44,160.90 588.03,161.46 590.63,162.03 593.23,162.59 595.82,163.16 598.42,163.72 601.02,164.29 603.61,164.85 606.21,165.42 608.81,165.98 611.40,166.54 614.00,167.11 616.60,167.67 619.19,168.24 621.79,168.80 624.39,169.37 626.98,169.93 629.58,170.50 632.18,171.06 634.77,171.63 637.37,172.19 639.97,172.75 642.56,173.32 645.16,173.88 647.76,174.45 650.35,175.01 652.95,175.58 655.55,176.14 658.14,176.71 660.74,177.27 663.34,177.83 665.93,178.40 668.53,178.96 671.13,179.53 673.72,180.09 676.32,180.66 678.92,181.22 681.51,181.79 684.11,182.35 686.71,182.91 689.30,183.48 691.90,184.04 694.50,184.61 697.09,185.17 699.69,185.74 702.29,186.30 704.88,186.87 707.48,187.43 710.08,188.00 712.67,188.56 715.27,189.12 717.87,189.69 720.46,190.25 723.06,190.82 725.66,191.38 728.25,191.95 730.85,192.51 733.45,193.08 736.04,193.64 738.64,194.20 741.24,194.77 743.83,195.33 746.43,195.90 749.02,196.46 751.62,197.03" class="grid-line" />
<polyline points="653.51,357.57 654.76,355.54 656.00,353.50 657.24,351.47 658.48,349.44 659.72,347.41 660.96,345.37 662.21,343.34 663.45,341.31 664.69,339.28 665.93,337.25 667.17,335.21 668.42,333.18 669.66,331.15 670.90,329.12 672.14,327.09 673.38,325.05 674.63,323.02 675.87,320.99 677.11,318.96 678.35,316.92 679.59,314.89 680.83,312.86 682.08,310.83 683.32,308.80 684.56,306.76 685.80,304.73 687.04,302.70 688.29,300.67 689.53,298.63 690.77,296.60 692.01,294.57 693.25,292.54 694.50,290.51 695.74,288.47 696.98,286.44 698.22,284.41 699.46,282.38 700.70,280.35 701.95,278.31 703.19,276.28 704.43,274.25 705.67,272.22 706.91,270.18 708.16,268.15 709.40,266.12 710.64,264.09 711.88,262.06 713.12,260.02 714.37,257.99 715.61,255.96 716.85,253.93 718.09,251.90 719.33,249.86 720.57,247.83 721.82,245.80 723.06,243.77 724.30,241.73 725.54,239.70 726.78,237.67 728.03,235.64 729.27,233.61 730.51,231.57 731.75,229.54 732.99,227.51 734.24,225.48 735.48,223.45 736.72,221.41 737.96,219.38 739.20,217.35 740.44,215.32 741.69,213.28 742.93,211.25 744.17,209.22 745.41,207.19 746.65,205.16 747.90,203.12 749.14,201.09 750.38,199.06 751.62,197.03" class="grid-line" />
<polyline points="410.25,213.75 789.75,296.25" class="axis-line" />
<polyline points="509.25,403.50 690.75,106.50" class="axis-line" />
<polyline points="448.38,312.97 450.98,313.54 453.57,314.10 456.17,314.67 458.76,315.23 461.36,315.80 463.96,316.36 466.55,316.92 469.15,317.49 471.75,318.05 474.34,318.62 476.94,319.18 479.54,319.75 482.13,320.31 484.73,320.88 487.33,321.44 489.92,322.00 492.52,322.57 495.12,323.13 497.71,323.70 500.31,324.26 502.91,324.83 505.50,325.39 508.10,325.96 510.70,326.52 513.29,327.09 515.89,327.65 518.49,328.21 521.08,328.78 523.68,329.34 526.28,329.91 528.87,330.47 531.47,331.04 534.07,331.60 536.66,332.17 539.26,332.73 541.86,333.29 544.45,333.86 547.05,334.42 549.65,334.99 552.24,335.55 554.84,336.12 557.44,336.68 560.03,337.25 562.63,337.81 565.23,338.37 567.82,338.94 570.42,339.50 573.02,340.07 575.61,340.63 578.21,341.20 580.81,341.76 583.40,342.33 586.00,342.89 588.60,343.46 591.19,344.02 593.79,344.58 596.39,345.15 598.98,345.71 601.58,346.28 604.18,346.84 606.77,347.41 609.37,347.97 611.97,348.54 614.56,349.10 617.16,349.66 619.76,350.23 622.35,350.79 624.95,351.36 627.55,351.92 630.14,352.49 632.74,353.05 635.34,353.62 637.93,354.18 640.53,354.75 643.13,355.31 645.72,355.87 648.32,356.44 650.92,357.00 653.51,357.57 654.76,355.54 656.00,353.50 657.24,351.47 658.48,349.44 659.72,347.41 660.96,345.37 662.21,343.34 663.45,341.31 664.69,339.28 665.93,337.25 667.17,335.21 668.42,333.18 669.66,331.15 670.90,329.12 672.14,327.09 673.38,325.05 674.63,323.02 675.87,320.99 677.11,318.96 678.35,316.92 679.59,314.89 680.83,312.86 682.08,310.83 683.32,308.80 684.56,306.76 685.80,304.73 687.04,302.70 688.29,300.67 689.53,298.63 690.77,296.60 692.01,294.57 693.25,292.54 694.50,290.51 695.74,288.47 696.98,286.44 698.22,284.41 699.46,282.38 700.70,280.35 701.95,278.31 703.19,276.28 704.43,274.25 705.67,272.22 706.91,270.18 708.16,268.15 709.40,266.12 710.64,264.09 711.88,262.06 713.12,260.02 714.37,257.99 715.61,255.96 716.85,253.93 718.09,251.90 719.33,249.86 720.57,247.83 721.82,245.80 723.06,243.77 724.30,241.73 725.54,239.70 726.78,237.67 728.03,235.64 729.27,233.61 730.51,231.57 731.75,229.54 732.99,227.51 734.24,225.48 735.48,223.45 736.72,221.41 737.96,219.38 739.20,217.35 740.44,215.32 741.69,213.28 742.93,211.25 744.17,209.22 745.41,207.19 746.65,205.16 747.90,203.12 749.14,201.09 750.38,199.06 751.62,197.03 749.02,196.46 746.43,195.90 743.83,195.33 741.24,194.77 738.64,194.20 736.04,193.64 733.45,193.08 730.85,192.51 728.25,191.95 725.66,191.38 723.06,190.82 720.46,190.25 717.87,189.69 715.27,189.12 712.67,188.56 710.08,188.00 707.48,187.43 704.88,186.87 702.29,186.30 699.69,185.74 697.09,185.17 694.50,184.61 691.90,184.04 689.30,183.48 686.71,182.91 684.11,182.35 681.51,181.79 678.92,181.22 676.32,180.66 673.72,180.09 671.13,179.53 668.53,178.96 665.93,178.40 663.34,177.83 660.74,177.27 658.14,176.71 655.55,176.14 652.95,175.58 650.35,175.01 647.76,174.45 645.16,173.88 642.56,173.32 639.97,172.75 637.37,172.19 634.77,171.63 632.18,171.06 629.58,170.50 626.98,169.93 624.39,169.37 621.79,168.80 619.19,168.24 616.60,167.67 614.00,167.11 611.40,166.54 608.81,165.98 606.21,165.42 603.61,164.85 601.02,164.29 598.42,163.72 595.82,163.16 593.23,162.59 590.63,162.03 588.03,161.46 585.44,160.90 582.84,160.34 580.24,159.77 577.65,159.21 575.05,158.64 572.45,158.08 569.86,157.51 567.26,156.95 564.66,156.38 562.07,155.82 559.47,155.25 556.87,154.69 554.28,154.13 551.68,153.56 549.08,153.00 546.49,152.43 545.24,154.46 544.00,156.50 542.76,158.53 541.52,160.56 540.28,162.59 539.04,164.63 537.79,166.66 536.55,168.69 535.31,170.72 534.07,172.75 532.83,174.79 531.58,176.82 530.34,178.85 529.10,180.88 527.86,182.91 526.62,184.95 525.37,186.98 524.13,189.01 522.89,191.04 521.65,193.08 520.41,195.11 519.17,197.14 517.92,199.17 516.68,201.20 515.44,203.24 514.20,205.27 512.96,207.30 511.71,209.33 510.47,211.37 509.23,213.40 507.99,215.43 506.75,217.46 505.50,219.49 504.26,221.53 503.02,223.56 501.78,225.59 500.54,227.62 499.30,229.65 498.05,231.69 496.81,233.72 495.57,235.75 494.33,237.78 493.09,239.82 491.84,241.85 490.60,243.88 489.36,245.91 488.12,247.94 486.88,249.98 485.63,252.01 484.39,254.04 483.15,256.07 481.91,258.10 480.67,260.14 479.43,262.17 478.18,264.20 476.94,266.23 475.70,268.27 474.46,270.30 473.22,272.33 471.97,274.36 470.73,276.39 469.49,278.43 468.25,280.46 467.01,282.49 465.76,284.52 464.52,286.55 463.28,288.59 462.04,290.62 460.80,292.65 459.56,294.68 458.31,296.72 457.07,298.75 455.83,300.78 454.59,302.81 453.35,304.84 452.10,306.88 450.86,308.91 449.62,310.94 448.38,312.97" class="boundary" />
<polyline points="516.16,268.60 517.27,268.84 518.37,269.08 519.47,269.32 520.58,269.56 521.68,269.80 522.78,270.04 523.89,270.28 524.99,270.52 526.09,270.76 527.20,271.00 528.30,271.24 529.41,271.48 530.51,271.72 531.61,271.96 532.72,272.20 533.82,272.44 534.92,272.68 536.03,272.92 537.13,273.16 538.23,273.40 539.34,273.64 540.44,273.88 541.54,274.12 542.65,274.36 543.75,274.60 544.86,274.84 545.96,275.08 547.06,275.32 548.17,275.56 549.27,275.80 550.37,276.04 551.48,276.28 552.58,276.52 553.68,276.76 554.79,277.00 555.89,277.24 556.99,277.48 558.10,277.72 559.20,277.96 560.31,278.20 561.41,278.44 562.51,278.68 563.62,278.92 564.72,279.16 565.82,279.40 566.93,279.64 568.03,279.88 569.13,280.12 570.24,280.36 571.34,280.60 572.44,280.84 573.55,281.08 574.65,281.32 575.76,281.56 576.86,281.80 577.96,282.04 579.07,282.28 580.17,282.52 581.27,282.76 582.38,283.00 583.48,283.24 584.58,283.48 585.69,283.72 586.79,283.96 587.89,284.20 589.00,284.44 590.10,284.68 591.21,284.92 592.31,285.15 593.41,285.39 594.52,285.63 595.62,285.87 596.72,286.11 597.83,286.35 598.93,286.59 600.03,286.83 601.14,287.07 602.24,287.31 603.34,287.55 603.14,287.89 602.93,288.22 602.73,288.56 602.52,288.90 602.32,289.23 602.12,289.57 601.91,289.90 601.71,290.24 601.50,290.57 601.30,290.91 601.09,291.24 600.89,291.58 600.68,291.91 600.48,292.25 600.27,292.58 600.07,292.92 599.86,293.25 599.66,293.59 599.45,293.92 599.25,294.26 599.04,294.60 598.84,294.93 598.63,295.27 598.43,295.60 598.22,295.94 598.02,296.27 597.81,296.61 597.61,296.94 597.40,297.28 597.20,297.61 596.99,297.95 596.79,298.28 596.58,298.62 596.38,298.95 596.17,299.29 595.97,299.63 595.76,299.96 595.56,300.30 595.35,300.63 595.15,300.97 594.94,301.30 594.74,301.64 594.53,301.97 594.33,302.31 594.12,302.64 593.92,302.98 593.71,303.31 593.51,303.65 593.30,303.98 593.10,304.32 592.89,304.65 592.69,304.99 592.48,305.33 592.28,305.66 592.07,306.00 591.87,306.33 591.66,306.67 591.46,307.00 591.25,307.34 591.05,307.67 590.85,308.01 590.64,308.34 590.44,308.68 590.23,309.01 590.03,309.35 589.82,309.68 589.62,310.02 589.41,310.35 589.21,310.69 589.00,311.03 588.80,311.36 588.59,311.70 588.39,312.03 588.18,312.37 587.98,312.70 587.77,313.04 587.57,313.37 587.36,313.71 587.16,314.04 588.29,313.51 589.43,312.97 590.57,312.44 591.70,311.90 592.84,311.36 593.97,310.83 595.11,310.29 596.25,309.76 597.38,309.22 598.52,308.69 599.66,308.15 600.79,307.61 601.93,307.08 603.07,306.54 604.20,306.01 605.34,305.47 606.47,304.94 607.61,304.40 608.75,303.86 609.88,303.33 611.02,302.79 612.16,302.26 613.29,301.72 614.43,301.19 615.56,300.65 616.70,300.12 617.84,299.58 618.97,299.04 620.11,298.51 621.25,297.97 622.38,297.44 623.52,296.90 624.66,296.37 625.79,295.83 626.93,295.29 628.06,294.76 629.20,294.22 630.34,293.69 631.47,293.15 632.61,292.62 633.75,292.08 634.88,291.54 636.02,291.01 637.15,290.47 638.29,289.94 639.43,289.40 640.56,288.87 641.70,288.33 642.84,287.79 643.97,287.26 645.11,286.72 646.25,286.19 647.38,285.65 648.52,285.12 649.65,284.58 650.79,284.04 651.93,283.51 653.06,282.97 654.20,282.44 655.34,281.90 656.47,281.37 657.61,280.83 658.74,280.29 659.88,279.76 661.02,279.22 662.15,278.69 663.29,278.15 664.43,277.62 665.56,277.08 666.70,276.54 667.84,276.01 668.97,275.47 670.11,274.94 671.24,274.40 672.38,273.87 673.52,273.33 674.65,272.79 675.79,272.26 676.93,271.72 676.63,270.88 676.34,270.03 676.05,269.18 675.76,268.34 675.47,267.49 675.17,266.65 674.88,265.80 674.59,264.95 674.30,264.11 674.01,263.26 673.72,262.42 673.42,261.57 673.13,260.72 672.84,259.88 672.55,259.03 672.26,258.18 671.96,257.34 671.67,256.49 671.38,255.65 671.09,254.80 670.80,253.95 670.51,253.11 670.21,252.26 669.92,251.41 669.63,250.57 669.34,249.72 669.05,248.88 668.75,248.03 668.46,247.18 668.17,246.34 667.88,245.49 667.59,244.65 667.29,243.80 667.00,242.95 666.71,242.11 666.42,241.26 666.13,240.41 665.84,239.57 665.54,238.72 665.25,237.88 664.96,237.03 664.67,236.18 664.38,235.34 664.08,234.49 663.79,233.65 663.50,232.80 663.21,231.95 662.92,231.11 662.63,230.26 662.33,229.41 662.04,228.57 661.75,227.72 661.46,226.88 661.17,226.03 660.87,225.18 660.58,224.34 660.29,223.49 660.00,222.65 659.71,221.80 659.42,220.95 659.12,220.11 658.83,219.26 658.54,218.41 658.25,217.57 657.96,216.72 657.66,215.88 657.37,215.03 657.08,214.18 656.79,213.34 656.50,212.49 656.20,211.65 655.91,210.80 655.62,209.95 655.33,209.11 655.04,208.26 654.75,207.41 654.45,206.57 654.16,205.72 653.87,204.88 653.67,205.21 653.46,205.55 653.26,205.88 653.05,206.22 652.85,206.55 652.64,206.89 652.44,207.22 652.23,207.56 652.03,207.89 651.82,208.23 651.62,208.56 651.41,208.90 651.21,209.23 651.00,209.57 650.80,209.91 650.59,210.24 650.39,210.58 650.18,210.91 649.98,211.25 649.77,211.58 649.57,211.92 649.36,212.25 649.16,212.59 648.95,212.92 648.75,213.26 648.54,213.59 648.34,213.93 648.13,214.26 647.93,214.60 647.72,214.93 647.52,215.27 647.31,215.61 647.11,215.94 646.90,216.28 646.70,216.61 646.49,216.95 646.29,217.28 646.08,217.62 645.88,217.95 645.67,218.29 645.47,218.62 645.26,218.96 645.06,219.29 644.85,219.63 644.65,219.96 644.44,220.30 644.24,220.64 644.03,220.97 643.83,221.31 643.62,221.64 643.42,221.98 643.21,222.31 643.01,222.65 642.81,222.98 642.60,223.32 642.40,223.65 642.19,223.99 641.99,224.32 641.78,224.66 641.58,224.99 641.37,225.33 641.17,225.66 640.96,226.00 640.76,226.34 640.55,226.67 640.35,227.01 640.14,227.34 639.94,227.68 639.73,228.01 639.53,228.35 639.32,228.68 639.12,229.02 638.91,229.35 638.71,229.69 638.50,230.02 638.30,230.36 638.09,230.69 637.89,231.03 637.68,231.36 636.58,231.12 635.48,230.89 634.37,230.65 633.27,230.41 632.16,230.17 631.06,229.93 629.96,229.69 628.85,229.45 627.75,229.21 626.65,228.97 625.54,228.73 624.44,228.49 623.34,228.25 622.23,228.01 621.13,227.77 620.03,227.53 618.92,227.29 617.82,227.05 616.71,226.81 615.61,226.57 614.51,226.33 613.40,226.09 612.30,225.85 611.20,225.61 610.09,225.37 608.99,225.13 607.89,224.89 606.78,224.65 605.68,224.41 604.58,224.17 603.47,223.93 602.37,223.69 601.26,223.45 600.16,223.21 599.06,222.97 597.95,222.73 596.85,222.49 595.75,222.25 594.64,222.01 593.54,221.77 592.44,221.53 591.33,221.29 590.23,221.05 589.13,220.81 588.02,220.57 586.92,220.33 585.81,220.09 584.71,219.85 583.61,219.61 582.50,219.37 581.40,219.13 580.30,218.89 579.19,218.65 578.09,218.41 576.99,218.17 575.88,217.93 574.78,217.69 573.68,217.45 572.57,217.21 571.47,216.97 570.36,216.73 569.26,216.49 568.16,216.25 567.05,216.01 565.95,215.77 564.85,215.53 563.74,215.29 562.64,215.05 561.54,214.81 560.43,214.57 559.33,214.33 558.23,214.09 557.12,213.85 556.02,213.61 554.91,213.37 553.81,213.13 552.71,212.89 551.60,212.65 550.50,212.41 550.07,213.12 549.63,213.83 549.20,214.55 548.76,215.26 548.33,215.97 547.89,216.68 547.46,217.39 547.02,218.10 546.59,218.81 546.15,219.52 545.72,220.24 545.28,220.95 544.85,221.66 544.41,222.37 543.98,223.08 543.55,223.79 543.11,224.50 542.68,225.21 542.24,225.93 541.81,226.64 541.37,227.35 540.94,228.06 540.50,228.77 540.07,229.48 539.63,230.19 539.20,230.90 538.76,231.62 538.33,232.33 537.89,233.04 537.46,233.75 537.03,234.46 536.59,235.17 536.16,235.88 535.72,236.59 535.29,237.31 534.85,238.02 534.42,238.73 533.98,239.44 533.55,240.15 533.11,240.86 532.68,241.57 532.24,242.28 531.81,243.00 531.38,243.71 530.94,244.42 530.51,245.13 530.07,245.84 529.64,246.55 529.20,247.26 528.77,247.97 528.33,248.69 527.90,249.40 527.46,250.11 527.03,250.82 526.59,251.53 526.16,252.24 525.72,252.95 525.29,253.66 524.86,254.38 524.42,255.09 523.99,255.80 523.55,256.51 523.12,257.22 522.68,257.93 522.25,258.64 521.81,259.36 521.38,260.07 520.94,260.78 520.51,261.49 520.07,262.20 519.64,262.91 519.20,263.62 518.77,264.33 518.34,265.05 517.90,265.76 517.47,266.47 517.03,267.18 516.60,267.89 516.16,268.60" class="arrow" />
<circle cx="561.47" cy="181.15" r="6.5" fill="#d64045" stroke="#ffffff" stroke-width="1.5" />
<circle cx="709.17" cy="213.26" r="6.5" fill="#f4a261" stroke="#ffffff" stroke-width="1.5" />
<circle cx="638.53" cy="328.85" r="6.5" fill="#2a9d8f" stroke="#ffffff" stroke-width="1.5" /><text x="990.0" y="65.0" class="panel-title" text-anchor="middle">Non-linear map</text>
<rect x="825.0" y="90.0" width="330.0" height="330.0" rx="4" class="frame" />
<polyline points="1046.52,367.76 1043.75,368.62 1041.18,369.37 1038.79,370.00 1036.59,370.52 1034.57,370.93 1032.73,371.23 1031.07,371.43 1029.59,371.53 1028.28,371.52 1027.14,371.40 1026.16,371.19 1025.35,370.87 1024.69,370.44 1024.19,369.91 1023.84,369.27 1023.63,368.52 1023.57,367.67 1023.64,366.71 1023.85,365.64 1024.18,364.46 1024.64,363.17 1025.22,361.77 1025.92,360.26 1026.73,358.64 1027.65,356.90 1028.68,355.06 1029.80,353.12 1031.03,351.06 1032.35,348.90 1033.76,346.63 1035.25,344.26 1036.82,341.79 1038.48,339.22 1040.20,336.56 1042.00,333.80 1043.86,330.94 1045.77,328.00 1047.75,324.97 1049.77,321.85 1051.83,318.65 1053.94,315.37 1056.07,312.01 1058.23,308.57 1060.41,305.06 1062.60,301.48 1064.79,297.82 1066.98,294.10 1069.16,290.31 1071.31,286.45 1073.44,282.53 1075.52,278.55 1077.55,274.50 1079.52,270.40 1081.41,266.23 1083.22,262.00 1084.92,257.72 1086.52,253.37 1087.98,248.97 1089.31,244.52 1090.48,240.01 1091.48,235.45 1092.29,230.85 1092.90,226.19 1093.29,221.50 1093.45,216.76 1093.35,212.00 1092.99,207.20 1092.34,202.39 1091.38,197.57 1090.11,192.74 1088.50,187.92 1086.54,183.11 1084.21,178.34 1081.51,173.62 1078.41,168.96 1074.90,164.38 1070.99,159.91 1066.64,155.55 1061.86,151.34" class="grid-line" />
<polyline points="1046.52,367.76 1040.13,369.01 1033.85,369.90 1027.69,370.44 1021.65,370.66 1015.76,370.58 1010.02,370.22 1004.45,369.59 999.04,368.72 993.82,367.62 988.78,366.31 983.92,364.81 979.25,363.14 974.77,361.32 970.48,359.35 966.37,357.26 962.45,355.06 958.72,352.76 955.17,350.38 951.79,347.94 948.59,345.43 945.55,342.88 942.67,340.30 939.95,337.69 937.38,335.07 934.96,332.44 932.67,329.81 930.51,327.20 928.48,324.60 926.56,322.02 924.75,319.47 923.04,316.97 921.43,314.50 919.91,312.07 918.47,309.70 917.11,307.39 915.81,305.13 914.58,302.94 913.40,300.81 912.28,298.76 911.19,296.78 910.15,294.87 909.14,293.05 908.15,291.31 907.19,289.65 906.25,288.08 905.32,286.61 904.40,285.22 903.48,283.94 902.57,282.75 901.65,281.67 900.73,280.69 899.81,279.83 898.87,279.07 897.93,278.44 896.97,277.92 896.00,277.52 895.02,277.25 894.03,277.12 893.02,277.11 892.01,277.25 890.99,277.53 889.96,277.96 888.92,278.54 887.89,279.27 886.87,280.16 885.85,281.22 884.85,282.45 883.87,283.85 882.92,285.43 882.01,287.18 881.15,289.12 880.34,291.25 879.60,293.57 878.93,296.07 878.36,298.77 877.89,301.67 877.53,304.76 877.31,308.04 877.24,311.52" class="grid-line" />
<polyline points="949.37,346.06 948.34,344.65 947.52,343.30 946.90,342.00 946.47,340.76 946.21,339.57 946.13,338.44 946.20,337.35 946.43,336.30 946.80,335.29 947.30,334.31 947.93,333.35 948.68,332.42 949.54,331.50 950.51,330.60 951.57,329.69 952.73,328.79 953.98,327.88 955.31,326.95 956.72,326.01 958.20,325.05 959.76,324.07 961.38,323.05 963.06,322.01 964.81,320.93 966.61,319.81 968.47,318.65 970.39,317.45 972.35,316.21 974.37,314.93 976.44,313.60 978.55,312.23 980.72,310.81 982.92,309.35 985.18,307.84 987.47,306.29 989.81,304.70 992.19,303.07 994.61,301.40 997.07,299.68 999.56,297.93 1002.10,296.15 1004.66,294.32 1007.26,292.46 1009.88,290.57 1012.54,288.63 1015.21,286.67 1017.91,284.67 1020.62,282.63 1023.34,280.56 1026.07,278.44 1028.81,276.29 1031.54,274.10 1034.25,271.86 1036.96,269.58 1039.63,267.25 1042.27,264.86 1044.87,262.42 1047.42,259.92 1049.91,257.35 1052.32,254.72 1054.64,252.02 1056.87,249.24 1058.99,246.38 1060.98,243.44 1062.83,240.42 1064.52,237.30 1066.05,234.10 1067.39,230.80 1068.52,227.41 1069.43,223.92 1070.10,220.35 1070.52,216.68 1070.66,212.92 1070.51,209.09 1070.04,205.18 1069.25,201.20 1068.11,197.16 1066.60,193.08 1064.71,188.96" class="grid-line" />
<polyline points="1024.09,364.76 1018.97,364.36 1014.02,363.69 1009.25,362.76 1004.67,361.60 1000.27,360.22 996.08,358.65 992.08,356.90 988.27,354.99 984.67,352.93 981.27,350.74 978.06,348.43 975.05,346.03 972.23,343.53 969.60,340.97 967.15,338.34 964.87,335.65 962.77,332.93 960.84,330.17 959.06,327.39 957.43,324.60 955.95,321.79 954.61,318.99 953.40,316.19 952.31,313.39 951.33,310.62 950.47,307.86 949.70,305.13 949.02,302.42 948.43,299.74 947.92,297.10 947.48,294.49 947.10,291.91 946.77,289.37 946.49,286.87 946.26,284.41 946.05,281.99 945.87,279.61 945.71,277.27 945.56,274.97 945.42,272.72 945.28,270.51 945.13,268.34 944.97,266.22 944.79,264.14 944.58,262.10 944.34,260.12 944.07,258.17 943.75,256.28 943.39,254.44 942.97,252.64 942.49,250.90 941.96,249.21 941.35,247.58 940.67,246.01 939.91,244.50 939.08,243.06 938.16,241.69 937.15,240.39 936.05,239.17 934.85,238.03 933.57,236.99 932.18,236.04 930.69,235.18 929.10,234.44 927.41,233.82 925.62,233.31 923.73,232.94 921.74,232.71 919.65,232.62 917.47,232.70 915.20,232.94 912.85,233.35 910.41,233.96 907.90,234.76 905.33,235.77 902.70,237.00 900.02,238.46 897.31,240.15 894.58,242.10" class="grid-line" />
<polyline points="911.73,297.76 912.45,295.56 913.34,293.50 914.40,291.60 915.59,289.84 916.93,288.21 918.38,286.70 919.94,285.31 921.60,284.03 923.34,282.85 925.17,281.75 927.06,280.74 929.02,279.79 931.03,278.91 933.08,278.08 935.17,277.28 937.30,276.53 939.45,275.79 941.63,275.07 943.83,274.37 946.05,273.66 948.27,272.96 950.51,272.24 952.76,271.51 955.01,270.75 957.26,269.98 959.52,269.18 961.78,268.35 964.03,267.48 966.29,266.58 968.55,265.65 970.81,264.68 973.07,263.67 975.33,262.63 977.58,261.55 979.84,260.43 982.10,259.28 984.36,258.10 986.61,256.88 988.87,255.63 991.13,254.36 993.39,253.05 995.64,251.72 997.90,250.37 1000.15,248.99 1002.40,247.59 1004.65,246.16 1006.89,244.72 1009.12,243.26 1011.34,241.78 1013.54,240.27 1015.73,238.75 1017.89,237.21 1020.03,235.64 1022.13,234.05 1024.20,232.44 1026.23,230.79 1028.21,229.12 1030.13,227.42 1031.98,225.68 1033.76,223.90 1035.46,222.08 1037.07,220.21 1038.58,218.30 1039.97,216.34 1041.23,214.32 1042.36,212.24 1043.34,210.11 1044.15,207.91 1044.79,205.65 1045.23,203.33 1045.47,200.94 1045.49,198.49 1045.27,195.98 1044.80,193.42 1044.07,190.80 1043.05,188.14 1041.75,185.44 1040.13,182.70 1038.19,179.95" class="grid-line" />
<polyline points="1050.79,320.26 1046.83,320.78 1042.98,321.05 1039.24,321.09 1035.64,320.89 1032.18,320.49 1028.85,319.90 1025.68,319.13 1022.65,318.19 1019.78,317.10 1017.06,315.87 1014.49,314.51 1012.08,313.04 1009.82,311.46 1007.71,309.79 1005.74,308.03 1003.92,306.20 1002.24,304.31 1000.70,302.35 999.29,300.35 998.00,298.30 996.84,296.21 995.80,294.09 994.86,291.94 994.03,289.77 993.30,287.57 992.67,285.37 992.12,283.14 991.65,280.91 991.26,278.68 990.93,276.43 990.67,274.18 990.46,271.93 990.30,269.67 990.18,267.42 990.10,265.16 990.05,262.90 990.02,260.64 990.00,258.39 990.00,256.13 990.00,253.87 990.00,251.61 989.98,249.36 989.95,247.10 989.90,244.84 989.82,242.58 989.70,240.33 989.54,238.07 989.33,235.82 989.07,233.57 988.74,231.32 988.35,229.09 987.88,226.86 987.33,224.63 986.70,222.43 985.97,220.23 985.14,218.06 984.20,215.91 983.16,213.79 982.00,211.70 980.71,209.65 979.30,207.65 977.76,205.69 976.08,203.80 974.26,201.97 972.29,200.21 970.18,198.54 967.92,196.96 965.51,195.49 962.94,194.13 960.22,192.90 957.35,191.81 954.32,190.87 951.15,190.10 947.82,189.51 944.36,189.11 940.76,188.91 937.02,188.95 933.17,189.22 929.21,189.74" class="grid-line" />
<polyline points="892.77,277.14 893.92,273.99 895.26,271.03 896.77,268.23 898.44,265.61 900.26,263.13 902.21,260.81 904.27,258.63 906.43,256.58 908.68,254.65 911.01,252.84 913.40,251.12 915.85,249.49 918.35,247.95 920.88,246.47 923.44,245.06 926.02,243.69 928.61,242.37 931.21,241.08 933.81,239.82 936.41,238.57 938.99,237.33 941.57,236.09 944.13,234.85 946.66,233.60 949.17,232.34 951.66,231.06 954.11,229.76 956.54,228.44 958.93,227.09 961.28,225.71 963.60,224.30 965.89,222.86 968.13,221.39 970.33,219.90 972.49,218.37 974.61,216.82 976.69,215.24 978.72,213.63 980.71,212.01 982.65,210.36 984.55,208.70 986.39,207.02 988.18,205.34 989.92,203.64 991.61,201.94 993.24,200.23 994.81,198.52 996.31,196.82 997.75,195.12 999.13,193.42 1000.43,191.74 1001.65,190.07 1002.79,188.41 1003.85,186.76 1004.81,185.13 1005.68,183.52 1006.44,181.93 1007.10,180.36 1007.64,178.81 1008.06,177.29 1008.35,175.79 1008.50,174.31 1008.50,172.86 1008.35,171.43 1008.04,170.04 1007.56,168.67 1006.90,167.34 1006.05,166.05 1005.01,164.79 1003.76,163.58 1002.29,162.42 1000.60,161.30 998.69,160.25 996.54,159.26 994.14,158.34 991.49,157.51 988.59,156.77 985.42,156.13 982.00,155.61" class="grid-line" />
<polyline points="1089.62,243.40 1087.45,245.96 1085.24,248.27 1083.01,250.34 1080.77,252.18 1078.52,253.80 1076.29,255.20 1074.08,256.39 1071.90,257.37 1069.76,258.17 1067.67,258.78 1065.62,259.21 1063.64,259.48 1061.71,259.59 1059.85,259.54 1058.06,259.35 1056.34,259.03 1054.69,258.57 1053.11,257.99 1051.60,257.30 1050.16,256.49 1048.80,255.58 1047.50,254.57 1046.27,253.47 1045.10,252.28 1043.99,251.00 1042.95,249.65 1041.95,248.22 1041.01,246.72 1040.12,245.15 1039.27,243.51 1038.46,241.82 1037.69,240.06 1036.94,238.25 1036.22,236.38 1035.52,234.46 1034.83,232.49 1034.14,230.47 1033.46,228.41 1032.78,226.31 1032.09,224.16 1031.38,221.97 1030.64,219.74 1029.88,217.48 1029.08,215.19 1028.24,212.86 1027.35,210.51 1026.41,208.13 1025.40,205.72 1024.33,203.30 1023.18,200.86 1021.94,198.42 1020.62,195.96 1019.20,193.50 1017.68,191.04 1016.05,188.60 1014.30,186.16 1012.43,183.75 1010.44,181.36 1008.31,179.01 1006.04,176.71 1003.63,174.45 1001.07,172.26 998.36,170.14 995.50,168.10 992.47,166.16 989.28,164.32 985.93,162.61 982.42,161.02 978.75,159.58 974.91,158.30 970.91,157.20 966.75,156.28 962.44,155.57 957.98,155.09 953.39,154.84 948.66,154.85 943.81,155.13 938.85,155.70 933.79,156.58" class="grid-line" />
<polyline points="877.24,311.52 876.31,307.13 875.67,302.85 875.30,298.67 875.17,294.59 875.29,290.62 875.62,286.76 876.16,282.99 876.89,279.33 877.78,275.76 878.83,272.28 880.03,268.89 881.35,265.58 882.79,262.35 884.33,259.19 885.96,256.09 887.67,253.06 889.44,250.07 891.27,247.13 893.15,244.24 895.06,241.39 897.00,238.56 898.96,235.77 900.92,233.00 902.89,230.25 904.85,227.52 906.81,224.81 908.74,222.11 910.65,219.43 912.53,216.76 914.37,214.10 916.17,211.45 917.93,208.82 919.63,206.20 921.28,203.60 922.88,201.02 924.41,198.46 925.87,195.93 927.26,193.43 928.58,190.96 929.81,188.53 930.97,186.14 932.04,183.80 933.03,181.51 933.92,179.28 934.72,177.12 935.42,175.02 936.01,173.00 936.51,171.05 936.89,169.20 937.16,167.44 937.32,165.77 937.35,164.21 937.27,162.76 937.06,161.43 936.72,160.22 936.25,159.14 935.65,158.19 934.91,157.39 934.03,156.72 933.01,156.21 931.84,155.86 930.53,155.67 929.07,155.65 927.46,155.80 925.69,156.13 923.78,156.65 921.72,157.36 919.50,158.26 917.14,159.38 914.63,160.70 911.98,162.24 909.19,164.00 906.26,165.99 903.21,168.22 900.04,170.69 896.76,173.41 893.37,176.39 889.89,179.63 886.34,183.14" class="grid-line" />
<polyline points="1061.86,151.34 1063.46,154.43 1064.84,157.41 1066.01,160.29 1066.99,163.06 1067.78,165.71 1068.40,168.22 1068.86,170.61 1069.17,172.87 1069.34,174.98 1069.38,176.96 1069.31,178.80 1069.12,180.50 1068.83,182.05 1068.44,183.47 1067.97,184.75 1067.42,185.89 1066.79,186.89 1066.09,187.76 1065.33,188.49 1064.50,189.10 1063.62,189.58 1062.68,189.93 1061.69,190.17 1060.65,190.29 1059.57,190.29 1058.43,190.18 1057.25,189.97 1056.02,189.65 1054.75,189.24 1053.42,188.73 1052.05,188.12 1050.63,187.44 1049.16,186.66 1047.64,185.81 1046.06,184.89 1044.42,183.90 1042.72,182.84 1040.96,181.72 1039.13,180.55 1037.23,179.33 1035.26,178.07 1033.20,176.77 1031.07,175.44 1028.85,174.08 1026.55,172.70 1024.15,171.31 1021.65,169.91 1019.05,168.52 1016.35,167.13 1013.55,165.77 1010.63,164.43 1007.59,163.12 1004.45,161.86 1001.18,160.65 997.79,159.51 994.27,158.44 990.64,157.45 986.88,156.56 982.99,155.78 978.98,155.12 974.84,154.59 970.58,154.21 966.20,153.99 961.71,153.93 957.11,154.06 952.40,154.40 947.59,154.94 942.69,155.71 937.71,156.73 932.66,158.00 927.54,159.54 922.38,161.36 917.19,163.48 911.98,165.92 906.77,168.67 901.58,171.76 896.43,175.19 891.34,178.98 886.34,183.14" class="grid-line" />
<polyline points="1073.92,389.78 826.04,243.81" class="axis-line" />
<polyline points="1079.69,116.51 900.31,393.49" class="axis-line" />
<polyline points="1046.52,367.76 1043.75,368.62 1041.18,369.37 1038.79,370.00 1036.59,370.52 1034.57,370.93 1032.73,371.23 1031.07,371.43 1029.59,371.53 1028.28,371.52 1027.14,371.40 1026.16,371.19 1025.35,370.87 1024.69,370.44 1024.19,369.91 1023.84,369.27 1023.63,368.52 1023.57,367.67 1023.64,366.71 1023.85,365.64 1024.18,364.46 1024.64,363.17 1025.22,361.77 1025.92,360.26 1026.73,358.64 1027.65,356.90 1028.68,355.06 1029.80,353.12 1031.03,351.06 1032.35,348.90 1033.76,346.63 1035.25,344.26 1036.82,341.79 1038.48,339.22 1040.20,336.56 1042.00,333.80 1043.86,330.94 1045.77,328.00 1047.75,324.97 1049.77,321.85 1051.83,318.65 1053.94,315.37 1056.07,312.01 1058.23,308.57 1060.41,305.06 1062.60,301.48 1064.79,297.82 1066.98,294.10 1069.16,290.31 1071.31,286.45 1073.44,282.53 1075.52,278.55 1077.55,274.50 1079.52,270.40 1081.41,266.23 1083.22,262.00 1084.92,257.72 1086.52,253.37 1087.98,248.97 1089.31,244.52 1090.48,240.01 1091.48,235.45 1092.29,230.85 1092.90,226.19 1093.29,221.50 1093.45,216.76 1093.35,212.00 1092.99,207.20 1092.34,202.39 1091.38,197.57 1090.11,192.74 1088.50,187.92 1086.54,183.11 1084.21,178.34 1081.51,173.62 1078.41,168.96 1074.90,164.38 1070.99,159.91 1066.64,155.55 1061.86,151.34 1063.46,154.43 1064.84,157.41 1066.01,160.29 1066.99,163.06 1067.78,165.71 1068.40,168.22 1068.86,170.61 1069.17,172.87 1069.34,174.98 1069.38,176.96 1069.31,178.80 1069.12,180.50 1068.83,182.05 1068.44,183.47 1067.97,184.75 1067.42,185.89 1066.79,186.89 1066.09,187.76 1065.33,188.49 1064.50,189.10 1063.62,189.58 1062.68,189.93 1061.69,190.17 1060.65,190.29 1059.57,190.29 1058.43,190.18 1057.25,189.97 1056.02,189.65 1054.75,189.24 1053.42,188.73 1052.05,188.12 1050.63,187.44 1049.16,186.66 1047.64,185.81 1046.06,184.89 1044.42,183.90 1042.72,182.84 1040.96,181.72 1039.13,180.55 1037.23,179.33 1035.26,178.07 1033.20,176.77 1031.07,175.44 1028.85,174.08 1026.55,172.70 1024.15,171.31 1021.65,169.91 1019.05,168.52 1016.35,167.13 1013.55,165.77 1010.63,164.43 1007.59,163.12 1004.45,161.86 1001.18,160.65 997.79,159.51 994.27,158.44 990.64,157.45 986.88,156.56 982.99,155.78 978.98,155.12 974.84,154.59 970.58,154.21 966.20,153.99 961.71,153.93 957.11,154.06 952.40,154.40 947.59,154.94 942.69,155.71 937.71,156.73 932.66,158.00 927.54,159.54 922.38,161.36 917.19,163.48 911.98,165.92 906.77,168.67 901.58,171.76 896.43,175.19 891.34,178.98 886.34,183.14 889.89,179.63 893.37,176.39 896.76,173.41 900.04,170.69 903.21,168.22 906.26,165.99 909.19,164.00 911.98,162.24 914.63,160.70 917.14,159.38 919.50,158.26 921.72,157.36 923.78,156.65 925.69,156.13 927.46,155.80 929.07,155.65 930.53,155.67 931.84,155.86 933.01,156.21 934.03,156.72 934.91,157.39 935.65,158.19 936.25,159.14 936.72,160.22 937.06,161.43 937.27,162.76 937.35,164.21 937.32,165.77 937.16,167.44 936.89,169.20 936.51,171.05 936.01,173.00 935.42,175.02 934.72,177.12 933.92,179.28 933.03,181.51 932.04,183.80 930.97,186.14 929.81,188.53 928.58,190.96 927.26,193.43 925.87,195.93 924.41,198.46 922.88,201.02 921.28,203.60 919.63,206.20 917.93,208.82 916.17,211.45 914.37,214.10 912.53,216.76 910.65,219.43 908.74,222.11 906.81,224.81 904.85,227.52 902.89,230.25 900.92,233.00 898.96,235.77 897.00,238.56 895.06,241.39 893.15,244.24 891.27,247.13 889.44,250.07 887.67,253.06 885.96,256.09 884.33,259.19 882.79,262.35 881.35,265.58 880.03,268.89 878.83,272.28 877.78,275.76 876.89,279.33 876.16,282.99 875.62,286.76 875.29,290.62 875.17,294.59 875.30,298.67 875.67,302.85 876.31,307.13 877.24,311.52 877.31,308.04 877.53,304.76 877.89,301.67 878.36,298.77 878.93,296.07 879.60,293.57 880.34,291.25 881.15,289.12 882.01,287.18 882.92,285.43 883.87,283.85 884.85,282.45 885.85,281.22 886.87,280.16 887.89,279.27 888.92,278.54 889.96,277.96 890.99,277.53 892.01,277.25 893.02,277.11 894.03,277.12 895.02,277.25 896.00,277.52 896.97,277.92 897.93,278.44 898.87,279.07 899.81,279.83 900.73,280.69 901.65,281.67 902.57,282.75 903.48,283.94 904.40,285.22 905.32,286.61 906.25,288.08 907.19,289.65 908.15,291.31 909.14,293.05 910.15,294.87 911.19,296.78 912.28,298.76 913.40,300.81 914.58,302.94 915.81,305.13 917.11,307.39 918.47,309.70 919.91,312.07 921.43,314.50 923.04,316.97 924.75,319.47 926.56,322.02 928.48,324.60 930.51,327.20 932.67,329.81 934.96,332.44 937.38,335.07 939.95,337.69 942.67,340.30 945.55,342.88 948.59,345.43 951.79,347.94 955.17,350.38 958.72,352.76 962.45,355.06 966.37,357.26 970.48,359.35 974.77,361.32 979.25,363.14 983.92,364.81 988.78,366.31 993.82,367.62 999.04,368.72 1004.45,369.59 1010.02,370.22 1015.76,370.58 1021.65,370.66 1027.69,370.44 1033.85,369.90 1040.13,369.01 1046.52,367.76" class="boundary" />
<polyline points="941.39,313.71 941.98,313.35 942.58,312.98 943.20,312.63 943.83,312.27 944.48,311.92 945.13,311.56 945.80,311.21 946.48,310.86 947.17,310.51 947.87,310.16 948.58,309.80 949.31,309.45 950.04,309.09 950.78,308.73 951.53,308.37 952.29,308.01 953.06,307.65 953.83,307.28 954.62,306.90 955.41,306.53 956.21,306.14 957.02,305.76 957.84,305.37 958.66,304.97 959.49,304.57 960.33,304.16 961.18,303.75 962.03,303.33 962.89,302.90 963.75,302.47 964.62,302.03 965.50,301.59 966.39,301.13 967.28,300.68 968.17,300.21 969.08,299.74 969.98,299.26 970.90,298.78 971.82,298.28 972.75,297.78 973.68,297.28 974.62,296.76 975.56,296.24 976.51,295.71 977.46,295.18 978.42,294.64 979.39,294.09 980.36,293.53 981.34,292.97 982.32,292.40 983.31,291.82 984.30,291.24 985.30,290.65 986.30,290.05 987.31,289.45 988.33,288.84 989.35,288.23 990.37,287.61 991.40,286.98 992.44,286.35 993.48,285.71 994.52,285.06 995.57,284.41 996.62,283.76 997.68,283.09 998.75,282.43 999.81,281.75 1000.88,281.08 1001.96,280.39 1003.04,279.70 1004.12,279.01 1005.21,278.31 1006.30,277.61 1007.40,276.90 1008.50,276.18 1009.60,275.46 1010.70,274.74 1011.81,274.01 1012.91,273.27 1013.04,273.59 1013.17,273.90 1013.30,274.21 1013.43,274.53 1013.56,274.84 1013.70,275.15 1013.84,275.46 1013.98,275.77 1014.13,276.08 1014.27,276.38 1014.42,276.69 1014.57,276.99 1014.73,277.30 1014.89,277.60 1015.04,277.90 1015.21,278.20 1015.37,278.50 1015.54,278.79 1015.71,279.09 1015.88,279.38 1016.05,279.67 1016.23,279.96 1016.41,280.25 1016.59,280.54 1016.78,280.83 1016.97,281.12 1017.16,281.40 1017.35,281.68 1017.55,281.96 1017.75,282.24 1017.95,282.52 1018.16,282.79 1018.37,283.07 1018.58,283.34 1018.79,283.61 1019.01,283.88 1019.23,284.15 1019.45,284.41 1019.68,284.68 1019.91,284.94 1020.14,285.20 1020.38,285.46 1020.62,285.72 1020.86,285.97 1021.10,286.22 1021.35,286.47 1021.60,286.72 1021.85,286.97 1022.11,287.21 1022.37,287.45 1022.63,287.69 1022.90,287.93 1023.17,288.17 1023.44,288.40 1023.72,288.63 1024.00,288.86 1024.28,289.09 1024.57,289.31 1024.86,289.53 1025.15,289.75 1025.45,289.97 1025.75,290.18 1026.05,290.39 1026.35,290.60 1026.66,290.81 1026.98,291.01 1027.29,291.21 1027.61,291.41 1027.93,291.60 1028.26,291.79 1028.59,291.98 1028.92,292.17 1029.26,292.35 1029.60,292.53 1029.94,292.71 1030.29,292.88 1030.63,293.06 1030.99,293.22 1031.34,293.39 1031.36,292.35 1031.40,291.31 1031.45,290.27 1031.52,289.23 1031.60,288.19 1031.70,287.15 1031.82,286.11 1031.94,285.06 1032.09,284.02 1032.24,282.97 1032.41,281.92 1032.59,280.88 1032.78,279.83 1032.98,278.78 1033.20,277.73 1033.42,276.68 1033.66,275.63 1033.90,274.58 1034.16,273.53 1034.42,272.48 1034.69,271.43 1034.97,270.38 1035.25,269.32 1035.54,268.27 1035.84,267.21 1036.14,266.15 1036.45,265.10 1036.76,264.04 1037.08,262.97 1037.40,261.91 1037.73,260.85 1038.05,259.78 1038.38,258.71 1038.71,257.64 1039.04,256.57 1039.37,255.50 1039.70,254.42 1040.03,253.34 1040.36,252.25 1040.69,251.17 1041.01,250.08 1041.33,248.99 1041.65,247.89 1041.96,246.79 1042.27,245.69 1042.57,244.58 1042.86,243.47 1043.15,242.35 1043.43,241.24 1043.71,240.11 1043.97,238.98 1044.23,237.85 1044.47,236.71 1044.70,235.57 1044.92,234.42 1045.13,233.27 1045.33,232.11 1045.51,230.95 1045.68,229.78 1045.84,228.60 1045.97,227.43 1046.09,226.24 1046.20,225.05 1046.28,223.86 1046.35,222.66 1046.39,221.45 1046.42,220.24 1046.43,219.03 1046.41,217.81 1046.37,216.58 1046.31,215.35 1046.22,214.12 1046.10,212.88 1045.97,211.63 1045.80,210.39 1045.61,209.13 1045.38,207.88 1045.13,206.62 1044.85,205.36 1044.27,205.36 1043.67,205.33 1043.08,205.29 1042.47,205.22 1041.86,205.14 1041.25,205.05 1040.63,204.93 1040.00,204.81 1039.38,204.66 1038.74,204.50 1038.10,204.33 1037.46,204.14 1036.82,203.94 1036.17,203.73 1035.51,203.50 1034.86,203.26 1034.20,203.01 1033.53,202.75 1032.87,202.47 1032.20,202.19 1031.52,201.90 1030.84,201.60 1030.16,201.28 1029.48,200.97 1028.79,200.64 1028.10,200.30 1027.40,199.96 1026.70,199.61 1026.00,199.26 1025.29,198.90 1024.58,198.53 1023.86,198.16 1023.14,197.79 1022.41,197.41 1021.68,197.03 1020.95,196.64 1020.20,196.25 1019.46,195.86 1018.71,195.47 1017.95,195.07 1017.18,194.68 1016.41,194.28 1015.64,193.89 1014.85,193.49 1014.06,193.09 1013.27,192.70 1012.46,192.31 1011.65,191.92 1010.83,191.53 1010.00,191.14 1009.16,190.76 1008.31,190.38 1007.46,190.00 1006.59,189.63 1005.72,189.26 1004.84,188.90 1003.94,188.54 1003.04,188.19 1002.12,187.84 1001.19,187.51 1000.25,187.18 999.30,186.85 998.34,186.54 997.37,186.23 996.38,185.93 995.38,185.65 994.37,185.37 993.35,185.10 992.31,184.84 991.25,184.60 990.19,184.36 989.11,184.14 988.01,183.93 986.90,183.73 985.78,183.55 984.64,183.38 983.49,183.23 982.32,183.09 981.13,182.97 981.55,183.27 981.96,183.58 982.37,183.89 982.78,184.20 983.18,184.51 983.58,184.83 983.97,185.14 984.36,185.46 984.74,185.79 985.12,186.11 985.50,186.44 985.87,186.77 986.24,187.10 986.60,187.43 986.96,187.77 987.32,188.10 987.67,188.44 988.01,188.78 988.36,189.13 988.69,189.47 989.03,189.82 989.36,190.16 989.68,190.51 990.01,190.87 990.32,191.22 990.64,191.57 990.95,191.93 991.26,192.29 991.56,192.65 991.86,193.01 992.15,193.37 992.44,193.73 992.73,194.10 993.01,194.46 993.29,194.83 993.57,195.20 993.84,195.57 994.11,195.94 994.37,196.31 994.63,196.68 994.89,197.06 995.14,197.43 995.39,197.81 995.64,198.18 995.88,198.56 996.12,198.94 996.36,199.32 996.59,199.70 996.82,200.08 997.05,200.46 997.27,200.84 997.49,201.23 997.70,201.61 997.92,201.99 998.12,202.38 998.33,202.77 998.53,203.15 998.73,203.54 998.93,203.93 999.12,204.31 999.31,204.70 999.50,205.09 999.68,205.48 999.86,205.87 1000.04,206.26 1000.22,206.65 1000.39,207.04 1000.56,207.43 1000.72,207.83 1000.89,208.22 1001.05,208.61 1001.21,209.00 1001.36,209.40 1001.51,209.79 1001.66,210.18 1001.81,210.58 1001.96,210.97 1002.10,211.36 1002.24,211.76 1001.49,212.43 1000.73,213.10 999.96,213.78 999.19,214.45 998.41,215.11 997.62,215.78 996.83,216.44 996.03,217.11 995.22,217.76 994.40,218.42 993.58,219.07 992.75,219.72 991.92,220.37 991.07,221.01 990.23,221.65 989.37,222.29 988.51,222.92 987.65,223.55 986.78,224.17 985.90,224.79 985.02,225.40 984.13,226.01 983.23,226.62 982.33,227.22 981.43,227.81 980.52,228.40 979.60,228.98 978.68,229.56 977.75,230.13 976.82,230.70 975.88,231.26 974.94,231.81 973.99,232.36 973.03,232.90 972.07,233.44 971.11,233.97 970.14,234.49 969.16,235.01 968.18,235.52 967.20,236.02 966.21,236.52 965.21,237.01 964.21,237.50 963.21,237.98 962.20,238.45 961.19,238.92 960.17,239.38 959.15,239.84 958.12,240.29 957.09,240.74 956.05,241.18 955.01,241.62 953.97,242.05 952.92,242.48 951.87,242.91 950.81,243.33 949.76,243.75 948.70,244.17 947.63,244.58 946.56,244.99 945.50,245.40 944.42,245.81 943.35,246.22 942.28,246.63 941.20,247.04 940.12,247.45 939.04,247.87 937.96,248.28 936.88,248.70 935.81,249.12 934.73,249.54 933.65,249.97 932.57,250.41 931.50,250.85 930.42,251.29 929.35,251.75 928.29,252.21 927.23,252.68 926.17,253.16 926.43,253.64 926.69,254.12 926.94,254.61 927.18,255.12 927.41,255.63 927.64,256.15 927.86,256.68 928.08,257.22 928.29,257.76 928.49,258.32 928.68,258.88 928.88,259.46 929.06,260.04 929.24,260.63 929.42,261.22 929.59,261.83 929.75,262.44 929.91,263.06 930.07,263.69 930.22,264.33 930.37,264.97 930.51,265.62 930.66,266.28 930.79,266.95 930.93,267.63 931.06,268.31 931.19,269.00 931.32,269.70 931.45,270.40 931.57,271.11 931.69,271.83 931.82,272.55 931.94,273.29 932.06,274.03 932.18,274.77 932.30,275.53 932.42,276.29 932.54,277.05 932.66,277.83 932.78,278.61 932.90,279.40 933.02,280.19 933.15,280.99 933.28,281.80 933.41,282.61 933.54,283.43 933.68,284.26 933.82,285.10 933.96,285.93 934.10,286.78 934.25,287.63 934.41,288.49 934.57,289.36 934.73,290.23 934.90,291.10 935.08,291.99 935.26,292.87 935.45,293.77 935.64,294.67 935.84,295.57 936.05,296.49 936.26,297.40 936.49,298.32 936.72,299.25 936.96,300.18 937.21,301.12 937.46,302.06 937.73,303.01 938.01,303.96 938.30,304.92 938.59,305.88 938.90,306.85 939.22,307.82 939.55,308.79 939.89,309.77 940.25,310.75 940.61,311.73 940.99,312.72 941.39,313.71" class="arrow" />
<circle cx="900.78" cy="250.41" r="6.5" fill="#d64045" stroke="#ffffff" stroke-width="1.5" />
<circle cx="974.44" cy="153.16" r="6.5" fill="#f4a261" stroke="#ffffff" stroke-width="1.5" />
<circle cx="1079.47" cy="227.07" r="6.5" fill="#2a9d8f" stroke="#ffffff" stroke-width="1.5" />
</svg>
